<svg width="205" height="131" viewBox="0 0 205 131" fill="none" xmlns="http://www.w3.org/2000/svg">
<path d="M149.091 0H18.6364C13.6937 0 8.95346 1.97168 5.45846 5.48129C1.96347 8.9909 0 13.7509 0 18.7143V102.929H18.6364C18.6364 118.368 31.1227 131 46.5909 131C62.0591 131 74.5455 118.368 74.5455 102.929H125.795C125.795 118.368 138.282 131 153.75 131C169.218 131 181.705 118.368 181.705 102.929H205V56.1429L149.091 0ZM18.6364 56.1429V18.7143H55.9091V56.1429H18.6364ZM46.5909 116.964C38.8568 116.964 32.6136 110.695 32.6136 102.929C32.6136 95.1621 38.8568 88.8929 46.5909 88.8929C54.325 88.8929 60.5682 95.1621 60.5682 102.929C60.5682 110.695 54.325 116.964 46.5909 116.964ZM111.818 56.1429H74.5455V18.7143H111.818V56.1429ZM153.75 116.964C146.016 116.964 139.773 110.695 139.773 102.929C139.773 95.1621 146.016 88.8929 153.75 88.8929C161.484 88.8929 167.727 95.1621 167.727 102.929C167.727 110.695 161.484 116.964 153.75 116.964ZM130.455 56.1429V18.7143H139.773L177.045 56.1429H130.455Z" fill="#098C36"/>
</svg>
