<svg width="182" height="181" viewBox="0 0 182 181" fill="none" xmlns="http://www.w3.org/2000/svg">
<path fill-rule="evenodd" clip-rule="evenodd" d="M90.7045 0.444383C90.7045 0.688794 90.6381 0.888767 90.5568 0.888767C90.4756 0.888767 90.4091 1.08874 90.4091 1.33315C90.4091 1.57756 90.3426 1.77753 90.2614 1.77753C90.1801 1.77753 90.1136 1.97751 90.1136 2.22192C90.1136 2.46633 90.0472 2.6663 89.9659 2.6663C89.8847 2.6663 89.8182 2.86627 89.8182 3.11068C89.8182 3.3551 89.7517 3.55507 89.6704 3.55507C89.5892 3.55507 89.5227 3.75504 89.5227 3.99945C89.5227 4.24386 89.4562 4.44383 89.375 4.44383C89.2937 4.44383 89.2273 4.64381 89.2273 4.88822C89.2273 5.13263 89.1608 5.3326 89.0795 5.3326C88.9983 5.3326 88.9318 5.53257 88.9318 5.77699C88.9318 6.0214 88.8653 6.22137 88.7841 6.22137C88.7028 6.22137 88.6364 6.488 88.6364 6.81388C88.6364 7.13976 88.5699 7.40639 88.4886 7.40639C88.4074 7.40639 88.3409 7.53971 88.3409 7.70265C88.3409 7.86559 88.2744 7.9989 88.1932 7.9989C88.1119 7.9989 88.0454 8.13222 88.0454 8.29516C88.0454 8.58504 87.9469 8.59141 83.4659 8.59141C80.9472 8.59141 78.8864 8.62948 78.8864 8.67599C78.8864 8.82753 79.3038 9.18392 79.4813 9.18392C79.5764 9.18392 79.8405 9.3839 80.0682 9.62831C80.2958 9.87272 80.5739 10.0727 80.6857 10.0727C80.7977 10.0727 80.9851 10.206 81.1023 10.3689C81.2194 10.5319 81.4069 10.6652 81.5189 10.6652C81.6307 10.6652 81.9087 10.8652 82.1364 11.1096C82.364 11.354 82.642 11.554 82.7539 11.554C82.8658 11.554 83.0533 11.6873 83.1704 11.8502C83.2876 12.0132 83.4751 12.1465 83.587 12.1465C83.6989 12.1465 83.9769 12.3465 84.2045 12.5909C84.4322 12.8353 84.6981 13.0352 84.7954 13.0352C84.8928 13.0352 85.1587 13.2352 85.3864 13.4796C85.614 13.724 85.9067 13.924 86.0365 13.924C86.1742 13.924 86.2727 14.0476 86.2727 14.2203C86.2727 14.3832 86.2062 14.5165 86.125 14.5165C86.0437 14.5165 85.9773 14.7165 85.9773 14.9609C85.9773 15.2053 85.9108 15.4053 85.8295 15.4053C85.7483 15.4053 85.6818 15.6053 85.6818 15.8497C85.6818 16.0941 85.6153 16.2941 85.5341 16.2941C85.4528 16.2941 85.3864 16.5607 85.3864 16.8866C85.3864 17.2125 85.3199 17.4791 85.2386 17.4791C85.1574 17.4791 85.0909 17.6124 85.0909 17.7753C85.0909 17.9383 85.0244 18.0716 84.9432 18.0716C84.8619 18.0716 84.7954 18.2716 84.7954 18.516C84.7954 18.7604 84.729 18.9604 84.6477 18.9604C84.5665 18.9604 84.5 19.1603 84.5 19.4047C84.5 19.6492 84.4335 19.8491 84.3523 19.8491C84.271 19.8491 84.2045 20.1158 84.2045 20.4416C84.2045 20.7675 84.1381 21.0342 84.0568 21.0342C83.9756 21.0342 83.9091 21.2341 83.9091 21.4785C83.9091 21.7229 83.8426 21.9229 83.7614 21.9229C83.6801 21.9229 83.6136 22.1229 83.6136 22.3673C83.6136 22.6117 83.6801 22.8117 83.7614 22.8117C83.8426 22.8117 83.9091 22.745 83.9091 22.6636C83.9091 22.5821 84.0153 22.5154 84.1453 22.5154C84.2752 22.5154 84.5678 22.3155 84.7954 22.071C85.0231 21.8266 85.3011 21.6267 85.413 21.6267C85.5249 21.6267 85.7124 21.4933 85.8295 21.3304C85.9467 21.1675 86.1341 21.0342 86.2461 21.0342C86.358 21.0342 86.636 20.8342 86.8636 20.5898C87.0913 20.3454 87.3572 20.1454 87.4545 20.1454C87.5519 20.1454 87.8178 19.9454 88.0454 19.701C88.2731 19.4566 88.5511 19.2566 88.663 19.2566C88.7749 19.2566 88.9624 19.1233 89.0795 18.9604C89.1967 18.7974 89.3841 18.6641 89.4961 18.6641C89.608 18.6641 89.886 18.4641 90.1136 18.2197C90.4067 17.9051 90.6657 17.7753 91 17.7753C91.3343 17.7753 91.5933 17.9051 91.8864 18.2197C92.114 18.4641 92.392 18.6641 92.5039 18.6641C92.6158 18.6641 92.8033 18.7974 92.9204 18.9604C93.0376 19.1233 93.2251 19.2566 93.337 19.2566C93.4489 19.2566 93.7269 19.4566 93.9545 19.701C94.1822 19.9454 94.4481 20.1454 94.5454 20.1454C94.6428 20.1454 94.9087 20.3454 95.1364 20.5898C95.364 20.8342 95.642 21.0342 95.7539 21.0342C95.8658 21.0342 96.0533 21.1675 96.1704 21.3304C96.2876 21.4933 96.4751 21.6267 96.587 21.6267C96.6989 21.6267 96.9769 21.8266 97.2045 22.071C97.4322 22.3155 97.7248 22.5154 97.8547 22.5154C97.9847 22.5154 98.0909 22.5821 98.0909 22.6636C98.0909 22.745 98.1574 22.8117 98.2386 22.8117C98.3199 22.8117 98.3864 22.6117 98.3864 22.3673C98.3864 22.1229 98.3199 21.9229 98.2386 21.9229C98.1574 21.9229 98.0909 21.7229 98.0909 21.4785C98.0909 21.2341 98.0244 21.0342 97.9432 21.0342C97.8619 21.0342 97.7954 20.7675 97.7954 20.4416C97.7954 20.1158 97.729 19.8491 97.6477 19.8491C97.5665 19.8491 97.5 19.6492 97.5 19.4047C97.5 19.1603 97.4335 18.9604 97.3523 18.9604C97.271 18.9604 97.2045 18.7604 97.2045 18.516C97.2045 18.2716 97.1381 18.0716 97.0568 18.0716C96.9756 18.0716 96.9091 17.9383 96.9091 17.7753C96.9091 17.6124 96.8426 17.4791 96.7614 17.4791C96.6801 17.4791 96.6136 17.2125 96.6136 16.8866C96.6136 16.5607 96.5472 16.2941 96.4659 16.2941C96.3847 16.2941 96.3182 16.0941 96.3182 15.8497C96.3182 15.6053 96.2517 15.4053 96.1704 15.4053C96.0892 15.4053 96.0227 15.2053 96.0227 14.9609C96.0227 14.7165 95.9562 14.5165 95.875 14.5165C95.7937 14.5165 95.7273 14.3832 95.7273 14.2203C95.7273 14.0476 95.8258 13.924 95.9635 13.924C96.0933 13.924 96.386 13.724 96.6136 13.4796C96.8413 13.2352 97.1072 13.0352 97.2045 13.0352C97.3019 13.0352 97.5678 12.8353 97.7954 12.5909C98.0231 12.3465 98.3011 12.1465 98.413 12.1465C98.5249 12.1465 98.7124 12.0132 98.8295 11.8502C98.9467 11.6873 99.1341 11.554 99.2461 11.554C99.358 11.554 99.636 11.354 99.8636 11.1096C100.091 10.8652 100.369 10.6652 100.481 10.6652C100.593 10.6652 100.781 10.5319 100.898 10.3689C101.015 10.206 101.202 10.0727 101.314 10.0727C101.426 10.0727 101.704 9.87272 101.932 9.62831C102.159 9.3839 102.424 9.18392 102.519 9.18392C102.696 9.18392 103.114 8.82753 103.114 8.67599C103.114 8.62948 101.053 8.59141 98.5341 8.59141C94.0531 8.59141 93.9545 8.58504 93.9545 8.29516C93.9545 8.13222 93.8881 7.9989 93.8068 7.9989C93.7256 7.9989 93.6591 7.86559 93.6591 7.70265C93.6591 7.53971 93.5926 7.40639 93.5114 7.40639C93.4301 7.40639 93.3636 7.13976 93.3636 6.81388C93.3636 6.488 93.2972 6.22137 93.2159 6.22137C93.1347 6.22137 93.0682 6.0214 93.0682 5.77699C93.0682 5.53257 93.0017 5.3326 92.9204 5.3326C92.8392 5.3326 92.7727 5.13263 92.7727 4.88822C92.7727 4.64381 92.7062 4.44383 92.625 4.44383C92.5437 4.44383 92.4773 4.24386 92.4773 3.99945C92.4773 3.75504 92.4108 3.55507 92.3295 3.55507C92.2483 3.55507 92.1818 3.3551 92.1818 3.11068C92.1818 2.86627 92.1153 2.6663 92.0341 2.6663C91.9528 2.6663 91.8864 2.46633 91.8864 2.22192C91.8864 1.97751 91.8199 1.77753 91.7386 1.77753C91.6574 1.77753 91.5909 1.57756 91.5909 1.33315C91.5909 1.08874 91.5244 0.888767 91.4432 0.888767C91.3619 0.888767 91.2954 0.688794 91.2954 0.444383C91.2954 0.0988013 91.2299 0 91 0C90.7701 0 90.7045 0.0988013 90.7045 0.444383ZM51.4091 10.5171C51.4091 10.7615 51.3426 10.9615 51.2614 10.9615C51.1801 10.9615 51.1136 11.1614 51.1136 11.4058C51.1136 11.6503 51.0472 11.8502 50.9659 11.8502C50.8847 11.8502 50.8182 12.1169 50.8182 12.4427C50.8182 12.7686 50.7517 13.0352 50.6705 13.0352C50.5892 13.0352 50.5227 13.1686 50.5227 13.3315C50.5227 13.4944 50.4562 13.6278 50.375 13.6278C50.2937 13.6278 50.2273 13.8944 50.2273 14.2203C50.2273 14.5462 50.1608 14.8128 50.0795 14.8128C49.9983 14.8128 49.9318 15.0128 49.9318 15.2572C49.9318 15.5016 49.8653 15.7015 49.7841 15.7015C49.7028 15.7015 49.6364 15.9015 49.6364 16.1459C49.6364 16.3903 49.5699 16.5903 49.4886 16.5903C49.4074 16.5903 49.3409 16.7903 49.3409 17.0347C49.3409 17.2791 49.2744 17.4791 49.1932 17.4791C49.1119 17.4791 49.0455 17.6791 49.0455 17.9235C49.0455 18.1679 48.979 18.3678 48.8977 18.3678C48.8165 18.3678 48.75 18.5012 48.75 18.6641C48.75 18.9541 48.6515 18.9604 44.0227 18.9604C41.4227 18.9604 39.2955 18.9967 39.2955 19.0411C39.2955 19.2066 40.0279 19.8491 40.2164 19.8491C40.3239 19.8491 40.5079 19.9824 40.625 20.1454C40.7421 20.3083 40.9296 20.4416 41.0416 20.4416C41.1534 20.4416 41.4314 20.6416 41.6591 20.886C41.8867 21.1304 42.1526 21.3304 42.25 21.3304C42.3474 21.3304 42.6133 21.5304 42.8409 21.7748C43.0686 22.0192 43.3466 22.2192 43.4584 22.2192C43.5704 22.2192 43.7579 22.3525 43.875 22.5154C43.9921 22.6784 44.1796 22.8117 44.2916 22.8117C44.4034 22.8117 44.6814 23.0117 44.9091 23.2561C45.1367 23.5005 45.3984 23.7005 45.4904 23.7005C45.8154 23.7005 46.6818 24.7202 46.6818 25.1028C46.6818 25.3091 46.6153 25.478 46.5341 25.478C46.4528 25.478 46.3864 25.7446 46.3864 26.0705C46.3864 26.3964 46.3199 26.663 46.2386 26.663C46.1574 26.663 46.0909 26.863 46.0909 27.1074C46.0909 27.3518 46.0244 27.5518 45.9432 27.5518C45.8619 27.5518 45.7955 27.7517 45.7955 27.9962C45.7955 28.2406 45.729 28.4405 45.6477 28.4405C45.5665 28.4405 45.5 28.6405 45.5 28.8849C45.5 29.1293 45.4335 29.3293 45.3523 29.3293C45.271 29.3293 45.2045 29.5293 45.2045 29.7737C45.2045 30.0181 45.1381 30.2181 45.0568 30.2181C44.9756 30.2181 44.9091 30.418 44.9091 30.6625C44.9091 30.9069 44.8426 31.1068 44.7614 31.1068C44.6801 31.1068 44.6136 31.3068 44.6136 31.5512C44.6136 31.7956 44.5472 31.9956 44.4659 31.9956C44.3847 31.9956 44.3182 32.1956 44.3182 32.44C44.3182 32.6844 44.2517 32.8844 44.1705 32.8844C44.0892 32.8844 44.0227 33.0177 44.0227 33.1806C44.0227 33.6145 44.4305 33.5464 44.9091 33.0325C45.1367 32.7881 45.4026 32.5881 45.5 32.5881C45.5974 32.5881 45.8633 32.3881 46.0909 32.1437C46.3186 31.8993 46.5966 31.6994 46.7084 31.6994C46.8204 31.6994 47.0079 31.566 47.125 31.4031C47.2421 31.2402 47.4296 31.1068 47.5416 31.1068C47.6534 31.1068 47.9314 30.9069 48.1591 30.6625C48.3867 30.418 48.6648 30.2181 48.7766 30.2181C48.8886 30.2181 49.076 30.0848 49.1932 29.9218C49.3103 29.7589 49.4978 29.6256 49.6098 29.6256C49.7216 29.6256 49.9996 29.4256 50.2273 29.1812C50.4549 28.9368 50.7232 28.7368 50.8232 28.7368C50.9232 28.7368 51.1382 28.5869 51.3008 28.4035C51.5014 28.1775 51.618 28.1298 51.6629 28.2554C51.6994 28.3573 51.83 28.4405 51.953 28.4405C52.0762 28.4405 52.3633 28.6405 52.5909 28.8849C52.8186 29.1293 53.0966 29.3293 53.2084 29.3293C53.3204 29.3293 53.5079 29.4626 53.625 29.6256C53.7421 29.7885 53.9296 29.9218 54.0416 29.9218C54.1534 29.9218 54.4314 30.1218 54.6591 30.3662C54.8867 30.6106 55.1526 30.8106 55.25 30.8106C55.3474 30.8106 55.6133 31.0106 55.8409 31.255C56.0686 31.4994 56.3466 31.6994 56.4584 31.6994C56.5704 31.6994 56.7579 31.8327 56.875 31.9956C56.9921 32.1586 57.1796 32.2919 57.2916 32.2919C57.4034 32.2919 57.6814 32.4918 57.9091 32.7362C58.1367 32.9807 58.4294 33.1806 58.5592 33.1806C58.6892 33.1806 58.7955 33.2473 58.7955 33.3288C58.7955 33.4102 58.8619 33.4769 58.9432 33.4769C59.0244 33.4769 59.0909 33.2769 59.0909 33.0325C59.0909 32.7881 59.0244 32.5881 58.9432 32.5881C58.8619 32.5881 58.7955 32.3881 58.7955 32.1437C58.7955 31.8993 58.729 31.6994 58.6477 31.6994C58.5665 31.6994 58.5 31.4994 58.5 31.255C58.5 31.0106 58.4335 30.8106 58.3523 30.8106C58.271 30.8106 58.2045 30.6106 58.2045 30.3662C58.2045 30.1218 58.1381 29.9218 58.0568 29.9218C57.9756 29.9218 57.9091 29.7218 57.9091 29.4774C57.9091 29.233 57.8426 29.0331 57.7614 29.0331C57.6801 29.0331 57.6136 28.8331 57.6136 28.5887C57.6136 28.3443 57.5472 28.1443 57.4659 28.1443C57.3847 28.1443 57.3182 27.9443 57.3182 27.6999C57.3182 27.4555 57.2517 27.2555 57.1705 27.2555C57.0892 27.2555 57.0227 27.0555 57.0227 26.8111C57.0227 26.5667 56.9562 26.3668 56.875 26.3668C56.7937 26.3668 56.7273 26.1668 56.7273 25.9224C56.7273 25.678 56.6608 25.478 56.5795 25.478C56.4983 25.478 56.4318 25.3084 56.4318 25.101C56.4318 24.7187 57.0165 23.9967 57.326 23.9967C57.4191 23.9967 57.6814 23.7967 57.9091 23.5523C58.1367 23.3079 58.4148 23.1079 58.5266 23.1079C58.6386 23.1079 58.826 22.9746 58.9432 22.8117C59.0603 22.6487 59.2478 22.5154 59.3598 22.5154C59.4716 22.5154 59.7496 22.3155 59.9773 22.071C60.2049 21.8266 60.4708 21.6267 60.5682 21.6267C60.6655 21.6267 60.9314 21.4267 61.1591 21.1823C61.3867 20.9379 61.6648 20.7379 61.7766 20.7379C61.8886 20.7379 62.076 20.6046 62.1932 20.4416C62.3103 20.2787 62.4934 20.1454 62.6 20.1454C62.7841 20.1454 63.8182 19.2065 63.8182 19.0393C63.8182 18.9959 61.6909 18.9604 59.0909 18.9604H54.3636V18.516C54.3636 18.2716 54.2972 18.0716 54.2159 18.0716C54.1347 18.0716 54.0682 17.8716 54.0682 17.6272C54.0682 17.3828 54.0017 17.1828 53.9205 17.1828C53.8392 17.1828 53.7727 16.9829 53.7727 16.7384C53.7727 16.494 53.7062 16.2941 53.625 16.2941C53.5437 16.2941 53.4773 16.0941 53.4773 15.8497C53.4773 15.6053 53.4108 15.4053 53.3295 15.4053C53.2483 15.4053 53.1818 15.1387 53.1818 14.8128C53.1818 14.4869 53.1153 14.2203 53.0341 14.2203C52.9528 14.2203 52.8864 14.0203 52.8864 13.7759C52.8864 13.5315 52.8199 13.3315 52.7386 13.3315C52.6574 13.3315 52.5909 13.1315 52.5909 12.8871C52.5909 12.6427 52.5244 12.4427 52.4432 12.4427C52.3619 12.4427 52.2955 12.3094 52.2955 12.1465C52.2955 11.9835 52.229 11.8502 52.1477 11.8502C52.0665 11.8502 52 11.5836 52 11.2577C52 10.9318 51.9335 10.6652 51.8523 10.6652C51.771 10.6652 51.7045 10.5319 51.7045 10.3689C51.7045 10.206 51.6381 10.0727 51.5568 10.0727C51.4756 10.0727 51.4091 10.2727 51.4091 10.5171ZM130.295 10.3689C130.295 10.5319 130.229 10.6652 130.148 10.6652C130.066 10.6652 130 10.9318 130 11.2577C130 11.5836 129.934 11.8502 129.852 11.8502C129.771 11.8502 129.705 11.9835 129.705 12.1465C129.705 12.3094 129.638 12.4427 129.557 12.4427C129.476 12.4427 129.409 12.6427 129.409 12.8871C129.409 13.1315 129.343 13.3315 129.261 13.3315C129.18 13.3315 129.114 13.5315 129.114 13.7759C129.114 14.0203 129.047 14.2203 128.966 14.2203C128.885 14.2203 128.818 14.4869 128.818 14.8128C128.818 15.1387 128.752 15.4053 128.67 15.4053C128.589 15.4053 128.523 15.6053 128.523 15.8497C128.523 16.0941 128.456 16.2941 128.375 16.2941C128.294 16.2941 128.227 16.494 128.227 16.7384C128.227 16.9829 128.161 17.1828 128.08 17.1828C127.998 17.1828 127.932 17.3828 127.932 17.6272C127.932 17.8716 127.865 18.0716 127.784 18.0716C127.703 18.0716 127.636 18.2716 127.636 18.516V18.9604H122.909C120.309 18.9604 118.182 18.9959 118.182 19.0393C118.182 19.2065 119.216 20.1454 119.4 20.1454C119.507 20.1454 119.69 20.2787 119.807 20.4416C119.924 20.6046 120.111 20.7379 120.223 20.7379C120.335 20.7379 120.613 20.9379 120.841 21.1823C121.069 21.4267 121.334 21.6267 121.432 21.6267C121.529 21.6267 121.795 21.8266 122.023 22.071C122.25 22.3155 122.528 22.5154 122.64 22.5154C122.752 22.5154 122.94 22.6487 123.057 22.8117C123.174 22.9746 123.361 23.1079 123.473 23.1079C123.585 23.1079 123.863 23.3079 124.091 23.5523C124.319 23.7967 124.581 23.9967 124.674 23.9967C124.983 23.9967 125.568 24.7187 125.568 25.101C125.568 25.3084 125.502 25.478 125.42 25.478C125.339 25.478 125.273 25.678 125.273 25.9224C125.273 26.1668 125.206 26.3668 125.125 26.3668C125.044 26.3668 124.977 26.5667 124.977 26.8111C124.977 27.0555 124.911 27.2555 124.83 27.2555C124.748 27.2555 124.682 27.4555 124.682 27.6999C124.682 27.9443 124.615 28.1443 124.534 28.1443C124.453 28.1443 124.386 28.3443 124.386 28.5887C124.386 28.8331 124.32 29.0331 124.239 29.0331C124.157 29.0331 124.091 29.233 124.091 29.4774C124.091 29.7218 124.024 29.9218 123.943 29.9218C123.862 29.9218 123.795 30.1218 123.795 30.3662C123.795 30.6106 123.729 30.8106 123.648 30.8106C123.566 30.8106 123.5 31.0106 123.5 31.255C123.5 31.4994 123.434 31.6994 123.352 31.6994C123.271 31.6994 123.205 31.8993 123.205 32.1437C123.205 32.3881 123.138 32.5881 123.057 32.5881C122.976 32.5881 122.909 32.7881 122.909 33.0325C122.909 33.2769 122.976 33.4769 123.057 33.4769C123.138 33.4769 123.205 33.4102 123.205 33.3288C123.205 33.2473 123.311 33.1806 123.441 33.1806C123.571 33.1806 123.863 32.9807 124.091 32.7362C124.319 32.4918 124.597 32.2919 124.708 32.2919C124.82 32.2919 125.008 32.1586 125.125 31.9956C125.242 31.8327 125.43 31.6994 125.542 31.6994C125.653 31.6994 125.931 31.4994 126.159 31.255C126.387 31.0106 126.653 30.8106 126.75 30.8106C126.847 30.8106 127.113 30.6106 127.341 30.3662C127.569 30.1218 127.847 29.9218 127.958 29.9218C128.07 29.9218 128.258 29.7885 128.375 29.6256C128.492 29.4626 128.68 29.3293 128.792 29.3293C128.903 29.3293 129.181 29.1293 129.409 28.8849C129.637 28.6405 129.924 28.4405 130.047 28.4405C130.17 28.4405 130.301 28.3573 130.337 28.2554C130.382 28.1298 130.499 28.1775 130.699 28.4035C130.862 28.5869 131.077 28.7368 131.177 28.7368C131.277 28.7368 131.545 28.9368 131.773 29.1812C132 29.4256 132.278 29.6256 132.39 29.6256C132.502 29.6256 132.69 29.7589 132.807 29.9218C132.924 30.0848 133.111 30.2181 133.223 30.2181C133.335 30.2181 133.613 30.418 133.841 30.6625C134.069 30.9069 134.347 31.1068 134.458 31.1068C134.57 31.1068 134.758 31.2402 134.875 31.4031C134.992 31.566 135.18 31.6994 135.292 31.6994C135.403 31.6994 135.681 31.8993 135.909 32.1437C136.137 32.3881 136.403 32.5881 136.5 32.5881C136.597 32.5881 136.863 32.7881 137.091 33.0325C137.57 33.5464 137.977 33.6145 137.977 33.1806C137.977 33.0177 137.911 32.8844 137.83 32.8844C137.748 32.8844 137.682 32.6844 137.682 32.44C137.682 32.1956 137.615 31.9956 137.534 31.9956C137.453 31.9956 137.386 31.7956 137.386 31.5512C137.386 31.3068 137.32 31.1068 137.239 31.1068C137.157 31.1068 137.091 30.9069 137.091 30.6625C137.091 30.418 137.024 30.2181 136.943 30.2181C136.862 30.2181 136.795 30.0181 136.795 29.7737C136.795 29.5293 136.729 29.3293 136.648 29.3293C136.566 29.3293 136.5 29.1293 136.5 28.8849C136.5 28.6405 136.434 28.4405 136.352 28.4405C136.271 28.4405 136.205 28.2406 136.205 27.9962C136.205 27.7517 136.138 27.5518 136.057 27.5518C135.976 27.5518 135.909 27.3518 135.909 27.1074C135.909 26.863 135.843 26.663 135.761 26.663C135.68 26.663 135.614 26.3964 135.614 26.0705C135.614 25.7446 135.547 25.478 135.466 25.478C135.385 25.478 135.318 25.3091 135.318 25.1028C135.318 24.7202 136.185 23.7005 136.51 23.7005C136.602 23.7005 136.863 23.5005 137.091 23.2561C137.319 23.0117 137.597 22.8117 137.708 22.8117C137.82 22.8117 138.008 22.6784 138.125 22.5154C138.242 22.3525 138.43 22.2192 138.542 22.2192C138.653 22.2192 138.931 22.0192 139.159 21.7748C139.387 21.5304 139.653 21.3304 139.75 21.3304C139.847 21.3304 140.113 21.1304 140.341 20.886C140.569 20.6416 140.847 20.4416 140.958 20.4416C141.07 20.4416 141.258 20.3083 141.375 20.1454C141.492 19.9824 141.676 19.8491 141.784 19.8491C141.972 19.8491 142.705 19.2066 142.705 19.0411C142.705 18.9967 140.577 18.9604 137.977 18.9604C133.349 18.9604 133.25 18.9541 133.25 18.6641C133.25 18.5012 133.184 18.3678 133.102 18.3678C133.021 18.3678 132.955 18.1679 132.955 17.9235C132.955 17.6791 132.888 17.4791 132.807 17.4791C132.726 17.4791 132.659 17.2791 132.659 17.0347C132.659 16.7903 132.593 16.5903 132.511 16.5903C132.43 16.5903 132.364 16.3903 132.364 16.1459C132.364 15.9015 132.297 15.7015 132.216 15.7015C132.135 15.7015 132.068 15.5016 132.068 15.2572C132.068 15.0128 132.002 14.8128 131.92 14.8128C131.839 14.8128 131.773 14.5462 131.773 14.2203C131.773 13.8944 131.706 13.6278 131.625 13.6278C131.544 13.6278 131.477 13.4944 131.477 13.3315C131.477 13.1686 131.411 13.0352 131.33 13.0352C131.248 13.0352 131.182 12.7686 131.182 12.4427C131.182 12.1169 131.115 11.8502 131.034 11.8502C130.953 11.8502 130.886 11.6503 130.886 11.4058C130.886 11.1614 130.82 10.9615 130.739 10.9615C130.657 10.9615 130.591 10.7615 130.591 10.5171C130.591 10.2727 130.524 10.0727 130.443 10.0727C130.362 10.0727 130.295 10.206 130.295 10.3689ZM22.4545 39.9945C22.4545 40.3204 22.3881 40.587 22.3068 40.587C22.2256 40.587 22.1591 40.7203 22.1591 40.8833C22.1591 41.0462 22.0926 41.1795 22.0114 41.1795C21.9301 41.1795 21.8636 41.3795 21.8636 41.6239C21.8636 41.8683 21.7972 42.0683 21.7159 42.0683C21.6347 42.0683 21.5682 42.3349 21.5682 42.6608C21.5682 42.9867 21.5017 43.2533 21.4205 43.2533C21.3392 43.2533 21.2727 43.4533 21.2727 43.6977C21.2727 43.9421 21.2062 44.1421 21.125 44.1421C21.0437 44.1421 20.9773 44.2754 20.9773 44.4383C20.9773 44.6013 20.9108 44.7346 20.8295 44.7346C20.7483 44.7346 20.6818 44.9346 20.6818 45.179C20.6818 45.4234 20.6153 45.6234 20.5341 45.6234C20.4528 45.6234 20.3864 45.89 20.3864 46.2159C20.3864 46.5418 20.3199 46.8084 20.2386 46.8084C20.1574 46.8084 20.0909 46.9798 20.0909 47.1892C20.0909 47.986 20.0451 47.9934 15.1525 47.9934C12.6686 47.9934 10.6364 48.0297 10.6364 48.0741C10.6364 48.2269 11.3617 48.8822 11.5306 48.8822C11.6236 48.8822 11.886 49.0822 12.1136 49.3266C12.3413 49.571 12.6193 49.771 12.7311 49.771C12.8431 49.771 13.0306 49.9043 13.1477 50.0672C13.2649 50.2301 13.4523 50.3635 13.5643 50.3635C13.6761 50.3635 13.9542 50.5634 14.1818 50.8078C14.4095 51.0523 14.6754 51.2522 14.7727 51.2522C14.8701 51.2522 15.136 51.4522 15.3636 51.6966C15.5913 51.941 15.8693 52.141 15.9811 52.141C16.0931 52.141 16.2806 52.2743 16.3977 52.4372C16.5149 52.6002 16.7143 52.7335 16.8409 52.7335C16.9675 52.7335 17.1669 52.8668 17.2841 53.0298C17.4012 53.1927 17.6153 53.326 17.7599 53.326C17.9534 53.326 18.0227 53.4432 18.0227 53.7704C18.0227 54.0148 17.9562 54.2148 17.875 54.2148C17.7937 54.2148 17.7273 54.4148 17.7273 54.6592C17.7273 54.9036 17.6608 55.1035 17.5795 55.1035C17.4983 55.1035 17.4318 55.3035 17.4318 55.5479C17.4318 55.7923 17.3653 55.9923 17.2841 55.9923C17.2028 55.9923 17.1364 56.1923 17.1364 56.4367C17.1364 56.6811 17.0699 56.8811 16.9886 56.8811C16.9074 56.8811 16.8409 57.0811 16.8409 57.3255C16.8409 57.5699 16.7744 57.7699 16.6932 57.7699C16.6119 57.7699 16.5455 57.9698 16.5455 58.2142C16.5455 58.4586 16.479 58.6586 16.3977 58.6586C16.3165 58.6586 16.25 58.8586 16.25 59.103C16.25 59.3474 16.1835 59.5474 16.1023 59.5474C16.021 59.5474 15.9545 59.7474 15.9545 59.9918C15.9545 60.2362 15.8881 60.4362 15.8068 60.4362C15.7256 60.4362 15.6591 60.6361 15.6591 60.8805C15.6591 61.1249 15.5926 61.3249 15.5114 61.3249C15.4301 61.3249 15.3636 61.5249 15.3636 61.7693C15.3636 62.0137 15.2972 62.2137 15.2159 62.2137C15.1347 62.2137 15.0682 62.2803 15.0682 62.3618C15.0682 62.6598 15.5514 62.4984 15.9545 62.0656C16.1822 61.8211 16.4481 61.6212 16.5455 61.6212C16.6428 61.6212 16.9087 61.4212 17.1364 61.1768C17.364 60.9324 17.6299 60.7324 17.7273 60.7324C17.8246 60.7324 18.0905 60.5324 18.3182 60.288C18.5458 60.0436 18.8239 59.8436 18.9357 59.8436C19.0477 59.8436 19.2351 59.7103 19.3523 59.5474C19.4694 59.3844 19.6569 59.2511 19.7689 59.2511C19.8807 59.2511 20.1587 59.0512 20.3864 58.8067C20.614 58.5623 20.8799 58.3624 20.9773 58.3624C21.0746 58.3624 21.3405 58.1624 21.5682 57.918C21.7958 57.6736 22.0885 57.4736 22.2183 57.4736C22.3483 57.4736 22.4545 57.4069 22.4545 57.3255C22.4545 57.244 22.5875 57.1773 22.75 57.1773C22.9125 57.1773 23.0455 57.244 23.0455 57.3255C23.0455 57.4069 23.1517 57.4736 23.2817 57.4736C23.4115 57.4736 23.7042 57.6736 23.9318 57.918C24.1595 58.1624 24.4375 58.3624 24.5493 58.3624C24.6613 58.3624 24.8488 58.4957 24.9659 58.6586C25.0831 58.8216 25.2705 58.9549 25.3825 58.9549C25.4943 58.9549 25.7724 59.1548 26 59.3993C26.2276 59.6437 26.4936 59.8436 26.5909 59.8436C26.6883 59.8436 26.9542 60.0436 27.1818 60.288C27.4095 60.5324 27.6875 60.7324 27.7993 60.7324C27.9113 60.7324 28.0988 60.8657 28.2159 61.0287C28.3331 61.1916 28.5205 61.3249 28.6325 61.3249C28.7443 61.3249 29.0224 61.5249 29.25 61.7693C29.4776 62.0137 29.7647 62.2137 29.8879 62.2137C30.0109 62.2137 30.1414 62.2971 30.1777 62.3988C30.216 62.5065 30.2984 62.529 30.3746 62.4526C30.4509 62.3762 30.4284 62.2935 30.321 62.2552C30.216 62.2175 30.1364 61.9389 30.1364 61.6089C30.1364 61.2898 30.0699 61.0287 29.9886 61.0287C29.9074 61.0287 29.8409 60.8953 29.8409 60.7324C29.8409 60.5695 29.7744 60.4362 29.6932 60.4362C29.6119 60.4362 29.5455 60.1695 29.5455 59.8436C29.5455 59.5178 29.479 59.2511 29.3977 59.2511C29.3165 59.2511 29.25 59.0512 29.25 58.8067C29.25 58.5623 29.1835 58.3624 29.1023 58.3624C29.021 58.3624 28.9545 58.1624 28.9545 57.918C28.9545 57.6736 28.8881 57.4736 28.8068 57.4736C28.7256 57.4736 28.6591 57.3403 28.6591 57.1773C28.6591 57.0144 28.5926 56.8811 28.5114 56.8811C28.4301 56.8811 28.3636 56.6145 28.3636 56.2886C28.3636 55.9627 28.2972 55.6961 28.2159 55.6961C28.1347 55.6961 28.0682 55.4961 28.0682 55.2517C28.0682 55.0073 28.0017 54.8073 27.9205 54.8073C27.8392 54.8073 27.7727 54.613 27.7727 54.3752C27.7727 54.1376 27.6915 53.916 27.5922 53.8828C27.3844 53.8134 28.1001 53.0298 28.3715 53.0298C28.4645 53.0298 28.7269 52.8298 28.9545 52.5854C29.1822 52.341 29.4481 52.141 29.5455 52.141C29.6428 52.141 29.9087 51.941 30.1364 51.6966C30.364 51.4522 30.642 51.2522 30.7539 51.2522C30.8658 51.2522 31.0533 51.1189 31.1705 50.956C31.2876 50.793 31.4751 50.6597 31.587 50.6597C31.6989 50.6597 31.9769 50.4597 32.2045 50.2153C32.4322 49.9709 32.6981 49.771 32.7955 49.771C32.8928 49.771 33.1587 49.571 33.3864 49.3266C33.614 49.0822 33.892 48.8822 34.0039 48.8822C34.1158 48.8822 34.3033 48.7489 34.4205 48.5859C34.5376 48.423 34.7517 48.2897 34.8963 48.2897C35.0408 48.2897 35.1591 48.223 35.1591 48.1415C35.1591 48.0459 33.4849 47.9934 30.4318 47.9934C25.8031 47.9934 25.7045 47.9872 25.7045 47.6972C25.7045 47.5342 25.6381 47.4009 25.5568 47.4009C25.4756 47.4009 25.4091 47.2009 25.4091 46.9565C25.4091 46.7121 25.3426 46.5121 25.2614 46.5121C25.1801 46.5121 25.1136 46.3122 25.1136 46.0678C25.1136 45.8233 25.0472 45.6234 24.9659 45.6234C24.8847 45.6234 24.8182 45.4234 24.8182 45.179C24.8182 44.9346 24.7517 44.7346 24.6705 44.7346C24.5892 44.7346 24.5227 44.5346 24.5227 44.2902C24.5227 44.0458 24.4562 43.8458 24.375 43.8458C24.2937 43.8458 24.2273 43.6459 24.2273 43.4015C24.2273 43.157 24.1608 42.9571 24.0795 42.9571C23.9983 42.9571 23.9318 42.7571 23.9318 42.5127C23.9318 42.2683 23.8653 42.0683 23.7841 42.0683C23.7028 42.0683 23.6364 41.8683 23.6364 41.6239C23.6364 41.3795 23.5699 41.1795 23.4886 41.1795C23.4074 41.1795 23.3409 40.9796 23.3409 40.7352C23.3409 40.4907 23.2744 40.2908 23.1932 40.2908C23.1119 40.2908 23.0455 40.0908 23.0455 39.8464C23.0455 39.5008 22.9799 39.402 22.75 39.402C22.5037 39.402 22.4545 39.5008 22.4545 39.9945ZM158.955 39.8464C158.955 40.0908 158.888 40.2908 158.807 40.2908C158.726 40.2908 158.659 40.4907 158.659 40.7352C158.659 40.9796 158.593 41.1795 158.511 41.1795C158.43 41.1795 158.364 41.3795 158.364 41.6239C158.364 41.8683 158.297 42.0683 158.216 42.0683C158.135 42.0683 158.068 42.2683 158.068 42.5127C158.068 42.7571 158.002 42.9571 157.92 42.9571C157.839 42.9571 157.773 43.157 157.773 43.4015C157.773 43.6459 157.706 43.8458 157.625 43.8458C157.544 43.8458 157.477 44.0458 157.477 44.2902C157.477 44.5346 157.411 44.7346 157.33 44.7346C157.248 44.7346 157.182 44.9346 157.182 45.179C157.182 45.4234 157.115 45.6234 157.034 45.6234C156.953 45.6234 156.886 45.8233 156.886 46.0678C156.886 46.3122 156.82 46.5121 156.739 46.5121C156.657 46.5121 156.591 46.7121 156.591 46.9565C156.591 47.2009 156.524 47.4009 156.443 47.4009C156.362 47.4009 156.295 47.5342 156.295 47.6972C156.295 47.9872 156.197 47.9934 151.568 47.9934C148.515 47.9934 146.841 48.0459 146.841 48.1415C146.841 48.223 146.959 48.2897 147.104 48.2897C147.248 48.2897 147.462 48.423 147.58 48.5859C147.697 48.7489 147.884 48.8822 147.996 48.8822C148.108 48.8822 148.386 49.0822 148.614 49.3266C148.841 49.571 149.107 49.771 149.205 49.771C149.302 49.771 149.568 49.9709 149.795 50.2153C150.023 50.4597 150.301 50.6597 150.413 50.6597C150.525 50.6597 150.712 50.793 150.83 50.956C150.947 51.1189 151.134 51.2522 151.246 51.2522C151.358 51.2522 151.636 51.4522 151.864 51.6966C152.091 51.941 152.369 52.141 152.481 52.141C152.593 52.141 152.781 52.2743 152.898 52.4372C153.015 52.6002 153.198 52.7335 153.305 52.7335C153.59 52.7335 154.622 53.8111 154.406 53.8834C154.308 53.9163 154.227 54.1376 154.227 54.3752C154.227 54.613 154.161 54.8073 154.08 54.8073C153.998 54.8073 153.932 55.0073 153.932 55.2517C153.932 55.4961 153.865 55.6961 153.784 55.6961C153.703 55.6961 153.636 55.9627 153.636 56.2886C153.636 56.6145 153.57 56.8811 153.489 56.8811C153.407 56.8811 153.341 57.0144 153.341 57.1773C153.341 57.3403 153.274 57.4736 153.193 57.4736C153.112 57.4736 153.045 57.6736 153.045 57.918C153.045 58.1624 152.979 58.3624 152.898 58.3624C152.816 58.3624 152.75 58.5623 152.75 58.8067C152.75 59.0512 152.684 59.2511 152.602 59.2511C152.521 59.2511 152.455 59.5178 152.455 59.8436C152.455 60.1695 152.388 60.4362 152.307 60.4362C152.226 60.4362 152.159 60.5695 152.159 60.7324C152.159 60.8953 152.093 61.0287 152.011 61.0287C151.93 61.0287 151.864 61.2898 151.864 61.6089C151.864 61.9389 151.784 62.2175 151.679 62.2552C151.572 62.2935 151.549 62.3762 151.625 62.4526C151.702 62.529 151.784 62.5065 151.822 62.3988C151.859 62.2971 151.989 62.2137 152.112 62.2137C152.235 62.2137 152.522 62.0137 152.75 61.7693C152.978 61.5249 153.256 61.3249 153.368 61.3249C153.479 61.3249 153.667 61.1916 153.784 61.0287C153.901 60.8657 154.089 60.7324 154.201 60.7324C154.312 60.7324 154.591 60.5324 154.818 60.288C155.046 60.0436 155.312 59.8436 155.409 59.8436C155.506 59.8436 155.772 59.6437 156 59.3993C156.228 59.1548 156.506 58.9549 156.618 58.9549C156.729 58.9549 156.917 58.8216 157.034 58.6586C157.151 58.4957 157.339 58.3624 157.451 58.3624C157.562 58.3624 157.841 58.1624 158.068 57.918C158.296 57.6736 158.588 57.4736 158.718 57.4736C158.848 57.4736 158.955 57.4069 158.955 57.3255C158.955 57.244 159.087 57.1773 159.25 57.1773C159.412 57.1773 159.545 57.244 159.545 57.3255C159.545 57.4069 159.652 57.4736 159.782 57.4736C159.912 57.4736 160.204 57.6736 160.432 57.918C160.659 58.1624 160.925 58.3624 161.023 58.3624C161.12 58.3624 161.386 58.5623 161.614 58.8067C161.841 59.0512 162.119 59.2511 162.231 59.2511C162.343 59.2511 162.531 59.3844 162.648 59.5474C162.765 59.7103 162.952 59.8436 163.064 59.8436C163.176 59.8436 163.454 60.0436 163.682 60.288C163.909 60.5324 164.175 60.7324 164.273 60.7324C164.37 60.7324 164.636 60.9324 164.864 61.1768C165.091 61.4212 165.369 61.6212 165.481 61.6212C165.593 61.6212 165.781 61.7545 165.898 61.9174C166.015 62.0804 166.223 62.2137 166.361 62.2137C166.499 62.2137 166.641 62.2971 166.678 62.3988C166.716 62.5065 166.798 62.529 166.875 62.4526C166.951 62.3762 166.928 62.2935 166.821 62.2552C166.72 62.2187 166.636 61.9946 166.636 61.757C166.636 61.5194 166.57 61.3249 166.489 61.3249C166.407 61.3249 166.341 61.1249 166.341 60.8805C166.341 60.6361 166.274 60.4362 166.193 60.4362C166.112 60.4362 166.045 60.2362 166.045 59.9918C166.045 59.7474 165.979 59.5474 165.898 59.5474C165.816 59.5474 165.75 59.3474 165.75 59.103C165.75 58.8586 165.684 58.6586 165.602 58.6586C165.521 58.6586 165.455 58.4586 165.455 58.2142C165.455 57.9698 165.388 57.7699 165.307 57.7699C165.226 57.7699 165.159 57.5699 165.159 57.3255C165.159 57.0811 165.093 56.8811 165.011 56.8811C164.93 56.8811 164.864 56.6811 164.864 56.4367C164.864 56.1923 164.797 55.9923 164.716 55.9923C164.635 55.9923 164.568 55.7923 164.568 55.5479C164.568 55.3035 164.502 55.1035 164.42 55.1035C164.339 55.1035 164.273 54.9036 164.273 54.6592C164.273 54.4148 164.206 54.2148 164.125 54.2148C164.044 54.2148 163.977 54.0148 163.977 53.7704C163.977 53.4432 164.047 53.326 164.24 53.326C164.385 53.326 164.599 53.1927 164.716 53.0298C164.833 52.8668 165.032 52.7335 165.159 52.7335C165.286 52.7335 165.485 52.6002 165.602 52.4372C165.719 52.2743 165.907 52.141 166.019 52.141C166.131 52.141 166.409 51.941 166.636 51.6966C166.864 51.4522 167.13 51.2522 167.227 51.2522C167.325 51.2522 167.591 51.0523 167.818 50.8078C168.046 50.5634 168.324 50.3635 168.436 50.3635C168.548 50.3635 168.735 50.2301 168.852 50.0672C168.969 49.9043 169.157 49.771 169.269 49.771C169.381 49.771 169.659 49.571 169.886 49.3266C170.114 49.0822 170.376 48.8822 170.469 48.8822C170.638 48.8822 171.364 48.2269 171.364 48.0741C171.364 48.0297 169.331 47.9934 166.847 47.9934C161.955 47.9934 161.909 47.986 161.909 47.1892C161.909 46.9798 161.843 46.8084 161.761 46.8084C161.68 46.8084 161.614 46.5418 161.614 46.2159C161.614 45.89 161.547 45.6234 161.466 45.6234C161.385 45.6234 161.318 45.4901 161.318 45.3271C161.318 45.1642 161.252 45.0309 161.17 45.0309C161.089 45.0309 161.023 44.8309 161.023 44.5865C161.023 44.3421 160.956 44.1421 160.875 44.1421C160.794 44.1421 160.727 43.9421 160.727 43.6977C160.727 43.4533 160.661 43.2533 160.58 43.2533C160.498 43.2533 160.432 42.9867 160.432 42.6608C160.432 42.3349 160.365 42.0683 160.284 42.0683C160.203 42.0683 160.136 41.8683 160.136 41.6239C160.136 41.3795 160.07 41.1795 159.989 41.1795C159.907 41.1795 159.841 41.0462 159.841 40.8833C159.841 40.7203 159.774 40.587 159.693 40.587C159.612 40.587 159.545 40.3204 159.545 39.9945C159.545 39.5008 159.496 39.402 159.25 39.402C159.02 39.402 158.955 39.5008 158.955 39.8464ZM12.1136 78.804C12.1136 78.9669 12.0472 79.1003 11.9659 79.1003C11.8847 79.1003 11.8182 79.3669 11.8182 79.6928C11.8182 80.0187 11.7517 80.2853 11.6705 80.2853C11.5892 80.2853 11.5227 80.4186 11.5227 80.5815C11.5227 80.7445 11.4562 80.8778 11.375 80.8778C11.2937 80.8778 11.2273 81.0778 11.2273 81.3222C11.2273 81.5666 11.1608 81.7666 11.0795 81.7666C10.9983 81.7666 10.9318 81.9665 10.9318 82.2109C10.9318 82.4554 10.8653 82.6553 10.7841 82.6553C10.7028 82.6553 10.6364 82.922 10.6364 83.2478C10.6364 83.5737 10.5699 83.8403 10.4886 83.8403C10.4074 83.8403 10.3409 84.0403 10.3409 84.2847C10.3409 84.5291 10.2744 84.7291 10.1932 84.7291C10.1119 84.7291 10.0455 84.9291 10.0455 85.1735C10.0455 85.4179 9.97898 85.6179 9.89773 85.6179C9.81648 85.6179 9.75 85.8179 9.75 86.0623C9.75 86.3067 9.68352 86.5067 9.60227 86.5067C9.52102 86.5067 9.45455 86.7066 9.45455 86.951V87.3954H4.72727C2.12727 87.3954 0 87.4317 0 87.4761C0 87.6289 0.725338 88.2842 0.89419 88.2842C0.987258 88.2842 1.24962 88.4842 1.47727 88.7286C1.70492 88.973 1.97083 89.173 2.06818 89.173C2.16553 89.173 2.43144 89.3729 2.65909 89.6173C2.88674 89.8617 3.16476 90.0617 3.27659 90.0617C3.38857 90.0617 3.57603 90.195 3.69318 90.358C3.81033 90.5209 3.9978 90.6542 4.10977 90.6542C4.2216 90.6542 4.49962 90.8542 4.72727 91.0986C4.95492 91.343 5.22083 91.543 5.31818 91.543C5.41553 91.543 5.68144 91.743 5.90909 91.9874C6.13674 92.2318 6.39911 92.4318 6.49217 92.4318C6.7408 92.4318 7.38636 93.122 7.38636 93.3879C7.38636 93.5138 7.31989 93.6168 7.23864 93.6168C7.15739 93.6168 7.09091 93.8834 7.09091 94.2093C7.09091 94.5352 7.02443 94.8018 6.94318 94.8018C6.86193 94.8018 6.79545 95.0018 6.79545 95.2462C6.79545 95.4906 6.72898 95.6906 6.64773 95.6906C6.56648 95.6906 6.5 95.8905 6.5 96.135C6.5 96.3794 6.43352 96.5793 6.35227 96.5793C6.27102 96.5793 6.20455 96.7793 6.20455 97.0237C6.20455 97.2681 6.13807 97.4681 6.05682 97.4681C5.97557 97.4681 5.90909 97.6681 5.90909 97.9125C5.90909 98.1569 5.84261 98.3569 5.76136 98.3569C5.68011 98.3569 5.61364 98.5568 5.61364 98.8013C5.61364 99.0457 5.54716 99.2456 5.46591 99.2456C5.38466 99.2456 5.31818 99.4456 5.31818 99.69C5.31818 99.9344 5.2517 100.134 5.17045 100.134C5.0892 100.134 5.02273 100.334 5.02273 100.579C5.02273 100.823 4.95625 101.023 4.875 101.023C4.79375 101.023 4.72727 101.223 4.72727 101.468C4.72727 101.712 4.79375 101.912 4.875 101.912C4.95625 101.912 5.02273 101.845 5.02273 101.764C5.02273 101.682 5.12894 101.616 5.25894 101.616C5.38879 101.616 5.68144 101.416 5.90909 101.171C6.13674 100.927 6.40265 100.727 6.5 100.727C6.59735 100.727 6.86326 100.527 7.09091 100.283C7.31856 100.038 7.59658 99.8382 7.70841 99.8382C7.82038 99.8382 8.00785 99.7048 8.125 99.5419C8.24215 99.379 8.42961 99.2456 8.54159 99.2456C8.65342 99.2456 8.93144 99.0457 9.15909 98.8013C9.38674 98.5568 9.65265 98.3569 9.75 98.3569C9.84735 98.3569 10.1133 98.1569 10.3409 97.9125C10.5686 97.6681 10.8466 97.4681 10.9584 97.4681C11.0704 97.4681 11.2579 97.3348 11.375 97.1719C11.4921 97.0089 11.7007 96.8756 11.8384 96.8756C11.9763 96.8756 12.1188 96.7924 12.1553 96.6904C12.2002 96.5648 12.3168 96.6125 12.5174 96.8386C12.68 97.0218 12.9069 97.1719 13.0217 97.1719C13.1363 97.1719 13.326 97.3052 13.4432 97.4681C13.5603 97.6311 13.7478 97.7644 13.8598 97.7644C13.9716 97.7644 14.2496 97.9643 14.4773 98.2087C14.7049 98.4532 14.9708 98.6531 15.0682 98.6531C15.1655 98.6531 15.4314 98.8531 15.6591 99.0975C15.8867 99.3419 16.1648 99.5419 16.2766 99.5419C16.3886 99.5419 16.576 99.6752 16.6932 99.8382C16.8103 100.001 16.9978 100.134 17.1098 100.134C17.2216 100.134 17.4996 100.334 17.7273 100.579C17.9549 100.823 18.2208 101.023 18.3182 101.023C18.4155 101.023 18.6814 101.223 18.9091 101.468C19.3877 101.981 19.7955 102.05 19.7955 101.616C19.7955 101.453 19.729 101.319 19.6477 101.319C19.5665 101.319 19.5 101.119 19.5 100.875C19.5 100.631 19.4335 100.431 19.3523 100.431C19.271 100.431 19.2045 100.231 19.2045 99.9863C19.2045 99.7419 19.1381 99.5419 19.0568 99.5419C18.9756 99.5419 18.9091 99.3419 18.9091 99.0975C18.9091 98.8531 18.8426 98.6531 18.7614 98.6531C18.6801 98.6531 18.6136 98.4532 18.6136 98.2087C18.6136 97.9643 18.5472 97.7644 18.4659 97.7644C18.3847 97.7644 18.3182 97.5644 18.3182 97.32C18.3182 97.0756 18.2517 96.8756 18.1705 96.8756C18.0892 96.8756 18.0227 96.6756 18.0227 96.4312C18.0227 96.1868 17.9562 95.9868 17.875 95.9868C17.7937 95.9868 17.7273 95.7869 17.7273 95.5424C17.7273 95.298 17.6608 95.0981 17.5795 95.0981C17.4983 95.0981 17.4318 94.8314 17.4318 94.5056C17.4318 94.1797 17.3653 93.913 17.2841 93.913C17.2028 93.913 17.1364 93.6464 17.1364 93.3205C17.1364 92.8513 17.191 92.728 17.3992 92.728C17.5438 92.728 17.7579 92.5947 17.875 92.4318C17.9921 92.2688 18.1796 92.1355 18.2916 92.1355C18.4034 92.1355 18.6814 91.9355 18.9091 91.6911C19.1367 91.4467 19.4148 91.2467 19.5266 91.2467C19.6386 91.2467 19.826 91.1134 19.9432 90.9505C20.0603 90.7875 20.2478 90.6542 20.3598 90.6542C20.4716 90.6542 20.7496 90.4543 20.9773 90.2098C21.2049 89.9654 21.4708 89.7655 21.5682 89.7655C21.6655 89.7655 21.9314 89.5655 22.1591 89.3211C22.3867 89.0767 22.6526 88.8767 22.75 88.8767C22.8474 88.8767 23.1133 88.6767 23.3409 88.4323C23.5686 88.1879 23.8327 87.9879 23.9278 87.9879C24.1053 87.9879 24.5227 87.6315 24.5227 87.48C24.5227 87.4335 22.3955 87.3954 19.7955 87.3954C15.1667 87.3954 15.0682 87.3892 15.0682 87.0992C15.0682 86.9362 15.0017 86.8029 14.9205 86.8029C14.8392 86.8029 14.7727 86.6029 14.7727 86.3585C14.7727 86.1141 14.7062 85.9141 14.625 85.9141C14.5437 85.9141 14.4773 85.7142 14.4773 85.4698C14.4773 85.2253 14.4108 85.0254 14.3295 85.0254C14.2483 85.0254 14.1818 84.8254 14.1818 84.581C14.1818 84.3366 14.1153 84.1366 14.0341 84.1366C13.9528 84.1366 13.8864 83.9366 13.8864 83.6922C13.8864 83.4478 13.8199 83.2478 13.7386 83.2478C13.6574 83.2478 13.5909 82.9812 13.5909 82.6553C13.5909 82.3294 13.5244 82.0628 13.4432 82.0628C13.3619 82.0628 13.2955 81.8628 13.2955 81.6184C13.2955 81.374 13.229 81.174 13.1477 81.174C13.0665 81.174 13 80.9741 13 80.7297C13 80.4853 12.9335 80.2853 12.8523 80.2853C12.771 80.2853 12.7045 80.0853 12.7045 79.8409C12.7045 79.5965 12.6381 79.3965 12.5568 79.3965C12.4756 79.3965 12.4091 79.1965 12.4091 78.9521C12.4091 78.7077 12.3426 78.5077 12.2614 78.5077C12.1801 78.5077 12.1136 78.6411 12.1136 78.804ZM169.591 78.9521C169.591 79.1965 169.524 79.3965 169.443 79.3965C169.362 79.3965 169.295 79.5965 169.295 79.8409C169.295 80.0853 169.229 80.2853 169.148 80.2853C169.066 80.2853 169 80.4853 169 80.7297C169 80.9741 168.934 81.174 168.852 81.174C168.771 81.174 168.705 81.374 168.705 81.6184C168.705 81.8628 168.638 82.0628 168.557 82.0628C168.476 82.0628 168.409 82.3294 168.409 82.6553C168.409 82.9812 168.343 83.2478 168.261 83.2478C168.18 83.2478 168.114 83.4478 168.114 83.6922C168.114 83.9366 168.047 84.1366 167.966 84.1366C167.885 84.1366 167.818 84.3366 167.818 84.581C167.818 84.8254 167.752 85.0254 167.67 85.0254C167.589 85.0254 167.523 85.2253 167.523 85.4698C167.523 85.7142 167.456 85.9141 167.375 85.9141C167.294 85.9141 167.227 86.1141 167.227 86.3585C167.227 86.6029 167.161 86.8029 167.08 86.8029C166.998 86.8029 166.932 86.9362 166.932 87.0992C166.932 87.3892 166.833 87.3954 162.205 87.3954C159.605 87.3954 157.477 87.4335 157.477 87.48C157.477 87.6315 157.895 87.9879 158.072 87.9879C158.167 87.9879 158.431 88.1879 158.659 88.4323C158.887 88.6767 159.153 88.8767 159.25 88.8767C159.347 88.8767 159.613 89.0767 159.841 89.3211C160.069 89.5655 160.347 89.7655 160.458 89.7655C160.57 89.7655 160.758 89.8988 160.875 90.0617C160.992 90.2247 161.18 90.358 161.292 90.358C161.403 90.358 161.681 90.5579 161.909 90.8024C162.137 91.0468 162.403 91.2467 162.5 91.2467C162.597 91.2467 162.863 91.4467 163.091 91.6911C163.319 91.9355 163.597 92.1355 163.708 92.1355C163.82 92.1355 164.008 92.2688 164.125 92.4318C164.242 92.5947 164.456 92.728 164.601 92.728C164.809 92.728 164.864 92.8513 164.864 93.3205C164.864 93.6464 164.797 93.913 164.716 93.913C164.635 93.913 164.568 94.1797 164.568 94.5056C164.568 94.8314 164.502 95.0981 164.42 95.0981C164.339 95.0981 164.273 95.298 164.273 95.5424C164.273 95.7869 164.206 95.9868 164.125 95.9868C164.044 95.9868 163.977 96.1868 163.977 96.4312C163.977 96.6756 163.911 96.8756 163.83 96.8756C163.748 96.8756 163.682 97.0756 163.682 97.32C163.682 97.5644 163.615 97.7644 163.534 97.7644C163.453 97.7644 163.386 97.9643 163.386 98.2087C163.386 98.4532 163.32 98.6531 163.239 98.6531C163.157 98.6531 163.091 98.8531 163.091 99.0975C163.091 99.3419 163.024 99.5419 162.943 99.5419C162.862 99.5419 162.795 99.7419 162.795 99.9863C162.795 100.231 162.729 100.431 162.648 100.431C162.566 100.431 162.5 100.631 162.5 100.875C162.5 101.119 162.434 101.319 162.352 101.319C162.271 101.319 162.205 101.453 162.205 101.616C162.205 102.05 162.612 101.981 163.091 101.468C163.319 101.223 163.584 101.023 163.682 101.023C163.779 101.023 164.045 100.823 164.273 100.579C164.5 100.334 164.778 100.134 164.89 100.134C165.002 100.134 165.19 100.001 165.307 99.8382C165.424 99.6752 165.611 99.5419 165.723 99.5419C165.835 99.5419 166.113 99.3419 166.341 99.0975C166.569 98.8531 166.834 98.6531 166.932 98.6531C167.029 98.6531 167.295 98.4532 167.523 98.2087C167.75 97.9643 168.028 97.7644 168.14 97.7644C168.252 97.7644 168.44 97.6311 168.557 97.4681C168.674 97.3052 168.864 97.1719 168.978 97.1719C169.093 97.1719 169.32 97.0218 169.483 96.8386C169.683 96.6125 169.8 96.5648 169.845 96.6904C169.881 96.7924 170.024 96.8756 170.162 96.8756C170.299 96.8756 170.508 97.0089 170.625 97.1719C170.742 97.3348 170.93 97.4681 171.042 97.4681C171.153 97.4681 171.431 97.6681 171.659 97.9125C171.887 98.1569 172.153 98.3569 172.25 98.3569C172.347 98.3569 172.613 98.5568 172.841 98.8013C173.069 99.0457 173.347 99.2456 173.458 99.2456C173.57 99.2456 173.758 99.379 173.875 99.5419C173.992 99.7048 174.18 99.8382 174.292 99.8382C174.403 99.8382 174.681 100.038 174.909 100.283C175.137 100.527 175.403 100.727 175.5 100.727C175.597 100.727 175.863 100.927 176.091 101.171C176.319 101.416 176.611 101.616 176.741 101.616C176.871 101.616 176.977 101.682 176.977 101.764C176.977 101.845 177.044 101.912 177.125 101.912C177.206 101.912 177.273 101.712 177.273 101.468C177.273 101.223 177.206 101.023 177.125 101.023C177.044 101.023 176.977 100.823 176.977 100.579C176.977 100.334 176.911 100.134 176.83 100.134C176.748 100.134 176.682 99.9344 176.682 99.69C176.682 99.4456 176.615 99.2456 176.534 99.2456C176.453 99.2456 176.386 99.0457 176.386 98.8013C176.386 98.5568 176.32 98.3569 176.239 98.3569C176.157 98.3569 176.091 98.1569 176.091 97.9125C176.091 97.6681 176.024 97.4681 175.943 97.4681C175.862 97.4681 175.795 97.2681 175.795 97.0237C175.795 96.7793 175.729 96.5793 175.648 96.5793C175.566 96.5793 175.5 96.3794 175.5 96.135C175.5 95.8905 175.434 95.6906 175.352 95.6906C175.271 95.6906 175.205 95.4906 175.205 95.2462C175.205 95.0018 175.138 94.8018 175.057 94.8018C174.976 94.8018 174.909 94.5352 174.909 94.2093C174.909 93.8834 174.843 93.6168 174.761 93.6168C174.68 93.6168 174.614 93.5138 174.614 93.3879C174.614 93.122 175.259 92.4318 175.508 92.4318C175.601 92.4318 175.863 92.2318 176.091 91.9874C176.319 91.743 176.584 91.543 176.682 91.543C176.779 91.543 177.045 91.343 177.273 91.0986C177.5 90.8542 177.778 90.6542 177.89 90.6542C178.002 90.6542 178.19 90.5209 178.307 90.358C178.424 90.195 178.611 90.0617 178.723 90.0617C178.835 90.0617 179.113 89.8617 179.341 89.6173C179.569 89.3729 179.834 89.173 179.932 89.173C180.029 89.173 180.295 88.973 180.523 88.7286C180.75 88.4842 181.013 88.2842 181.106 88.2842C181.275 88.2842 182 87.6289 182 87.4761C182 87.4317 179.873 87.3954 177.273 87.3954H172.545V86.951C172.545 86.7066 172.479 86.5067 172.398 86.5067C172.316 86.5067 172.25 86.3067 172.25 86.0623C172.25 85.8179 172.184 85.6179 172.102 85.6179C172.021 85.6179 171.955 85.4179 171.955 85.1735C171.955 84.9291 171.888 84.7291 171.807 84.7291C171.726 84.7291 171.659 84.5291 171.659 84.2847C171.659 84.0403 171.593 83.8403 171.511 83.8403C171.43 83.8403 171.364 83.5737 171.364 83.2478C171.364 82.922 171.297 82.6553 171.216 82.6553C171.135 82.6553 171.068 82.4554 171.068 82.2109C171.068 81.9665 171.002 81.7666 170.92 81.7666C170.839 81.7666 170.773 81.5666 170.773 81.3222C170.773 81.0778 170.706 80.8778 170.625 80.8778C170.544 80.8778 170.477 80.7445 170.477 80.5815C170.477 80.4186 170.411 80.2853 170.33 80.2853C170.248 80.2853 170.182 80.0187 170.182 79.6928C170.182 79.3669 170.115 79.1003 170.034 79.1003C169.953 79.1003 169.886 78.9669 169.886 78.804C169.886 78.6411 169.82 78.5077 169.739 78.5077C169.657 78.5077 169.591 78.7077 169.591 78.9521ZM22.4545 118.947C22.4545 119.191 22.3881 119.391 22.3068 119.391C22.2256 119.391 22.1591 119.591 22.1591 119.835C22.1591 120.08 22.0926 120.28 22.0114 120.28C21.9301 120.28 21.8636 120.48 21.8636 120.724C21.8636 120.969 21.7972 121.169 21.7159 121.169C21.6347 121.169 21.5682 121.369 21.5682 121.613C21.5682 121.857 21.5017 122.057 21.4205 122.057C21.3392 122.057 21.2727 122.257 21.2727 122.502C21.2727 122.746 21.2062 122.946 21.125 122.946C21.0437 122.946 20.9773 123.146 20.9773 123.39C20.9773 123.635 20.9108 123.835 20.8295 123.835C20.7483 123.835 20.6818 124.035 20.6818 124.279C20.6818 124.524 20.6153 124.724 20.5341 124.724C20.4528 124.724 20.3864 124.924 20.3864 125.168C20.3864 125.412 20.3199 125.612 20.2386 125.612C20.1574 125.612 20.0909 125.85 20.0909 126.141C20.0909 127.106 20.1569 127.094 15.1525 127.094C12.6686 127.094 10.6364 127.132 10.6364 127.178C10.6364 127.34 11.0598 127.686 11.258 127.686C11.3678 127.686 11.5533 127.819 11.6705 127.982C11.7876 128.145 11.9751 128.279 12.087 128.279C12.1989 128.279 12.4769 128.479 12.7045 128.723C12.9322 128.967 13.1981 129.167 13.2955 129.167C13.3928 129.167 13.6587 129.367 13.8864 129.612C14.114 129.856 14.392 130.056 14.5039 130.056C14.6158 130.056 14.8033 130.19 14.9205 130.352C15.0376 130.515 15.2251 130.649 15.337 130.649C15.4489 130.649 15.7269 130.849 15.9545 131.093C16.1822 131.338 16.4481 131.538 16.5455 131.538C16.6428 131.538 16.9087 131.737 17.1364 131.982C17.364 132.226 17.6567 132.426 17.7865 132.426C17.9242 132.426 18.0227 132.55 18.0227 132.723C18.0227 132.885 17.9562 133.019 17.875 133.019C17.7937 133.019 17.7273 133.219 17.7273 133.463C17.7273 133.708 17.6608 133.908 17.5795 133.908C17.4983 133.908 17.4318 134.108 17.4318 134.352C17.4318 134.596 17.3653 134.796 17.2841 134.796C17.2028 134.796 17.1364 134.996 17.1364 135.241C17.1364 135.485 17.0699 135.685 16.9886 135.685C16.9074 135.685 16.8409 135.952 16.8409 136.278C16.8409 136.603 16.7744 136.87 16.6932 136.87C16.6119 136.87 16.5455 137.07 16.5455 137.314C16.5455 137.559 16.479 137.759 16.3977 137.759C16.3165 137.759 16.25 137.892 16.25 138.055C16.25 138.218 16.1835 138.351 16.1023 138.351C16.021 138.351 15.9545 138.551 15.9545 138.796C15.9545 139.04 15.8881 139.24 15.8068 139.24C15.7256 139.24 15.6591 139.44 15.6591 139.685C15.6591 139.929 15.5926 140.129 15.5114 140.129C15.4301 140.129 15.3636 140.396 15.3636 140.721C15.3636 141.047 15.4301 141.314 15.5114 141.314C15.5926 141.314 15.6591 141.247 15.6591 141.166C15.6591 141.084 15.7653 141.018 15.8953 141.018C16.0252 141.018 16.3178 140.818 16.5455 140.573C16.7731 140.329 17.0511 140.129 17.163 140.129C17.2749 140.129 17.4624 139.996 17.5795 139.833C17.6967 139.67 17.8842 139.536 17.9961 139.536C18.108 139.536 18.386 139.336 18.6136 139.092C18.8413 138.848 19.1072 138.648 19.2045 138.648C19.3019 138.648 19.5678 138.448 19.7955 138.203C20.0231 137.959 20.3011 137.759 20.413 137.759C20.5249 137.759 20.7124 137.626 20.8295 137.463C20.9467 137.3 21.1342 137.166 21.2461 137.166C21.358 137.166 21.636 136.966 21.8636 136.722C22.1567 136.407 22.4157 136.278 22.75 136.278C23.0843 136.278 23.3433 136.407 23.6364 136.722C23.864 136.966 24.142 137.166 24.2539 137.166C24.3658 137.166 24.5533 137.3 24.6705 137.463C24.7876 137.626 24.9751 137.759 25.087 137.759C25.1989 137.759 25.4769 137.959 25.7045 138.203C25.9322 138.448 26.1981 138.648 26.2955 138.648C26.3928 138.648 26.6587 138.848 26.8864 139.092C27.114 139.336 27.392 139.536 27.5039 139.536C27.6158 139.536 27.8033 139.67 27.9205 139.833C28.0376 139.996 28.2251 140.129 28.337 140.129C28.4489 140.129 28.7269 140.329 28.9545 140.573C29.1822 140.818 29.4748 141.018 29.6047 141.018C29.7347 141.018 29.8409 141.084 29.8409 141.166C29.8409 141.247 29.9739 141.314 30.1364 141.314C30.2989 141.314 30.4318 141.247 30.4318 141.166C30.4318 141.084 30.3653 141.018 30.2841 141.018C30.2028 141.018 30.1364 140.818 30.1364 140.573C30.1364 140.329 30.0699 140.129 29.9886 140.129C29.9074 140.129 29.8409 139.929 29.8409 139.685C29.8409 139.44 29.7744 139.24 29.6932 139.24C29.6119 139.24 29.5455 139.04 29.5455 138.796C29.5455 138.551 29.479 138.351 29.3977 138.351C29.3165 138.351 29.25 138.151 29.25 137.907C29.25 137.663 29.1835 137.463 29.1023 137.463C29.021 137.463 28.9545 137.263 28.9545 137.018C28.9545 136.774 28.8881 136.574 28.8068 136.574C28.7256 136.574 28.6591 136.374 28.6591 136.129C28.6591 135.885 28.5926 135.685 28.5114 135.685C28.4301 135.685 28.3636 135.485 28.3636 135.241C28.3636 134.996 28.2972 134.796 28.2159 134.796C28.1347 134.796 28.0682 134.596 28.0682 134.352C28.0682 134.108 28.0017 133.908 27.9205 133.908C27.8392 133.908 27.7727 133.708 27.7727 133.463C27.7727 133.219 27.7062 133.019 27.625 133.019C27.5437 133.019 27.4773 132.885 27.4773 132.723C27.4773 132.55 27.5758 132.426 27.7135 132.426C27.8433 132.426 28.136 132.226 28.3636 131.982C28.5913 131.737 28.8693 131.538 28.9811 131.538C29.0931 131.538 29.2806 131.404 29.3977 131.241C29.5149 131.078 29.7023 130.945 29.8143 130.945C29.9261 130.945 30.2042 130.745 30.4318 130.501C30.6595 130.256 30.9254 130.056 31.0227 130.056C31.1201 130.056 31.386 129.856 31.6136 129.612C31.8413 129.367 32.1072 129.167 32.2045 129.167C32.3019 129.167 32.5678 128.967 32.7955 128.723C33.0231 128.479 33.3011 128.279 33.413 128.279C33.5249 128.279 33.7124 128.145 33.8295 127.982C33.9467 127.819 34.1322 127.686 34.242 127.686C34.4402 127.686 34.8636 127.34 34.8636 127.178C34.8636 127.132 32.8028 127.094 30.2841 127.094C25.8031 127.094 25.7045 127.087 25.7045 126.797C25.7045 126.634 25.6381 126.501 25.5568 126.501C25.4756 126.501 25.4091 126.301 25.4091 126.057C25.4091 125.812 25.3426 125.612 25.2614 125.612C25.1801 125.612 25.1136 125.412 25.1136 125.168C25.1136 124.924 25.0472 124.724 24.9659 124.724C24.8847 124.724 24.8182 124.524 24.8182 124.279C24.8182 124.035 24.7517 123.835 24.6705 123.835C24.5892 123.835 24.5227 123.635 24.5227 123.39C24.5227 123.146 24.4562 122.946 24.375 122.946C24.2937 122.946 24.2273 122.746 24.2273 122.502C24.2273 122.257 24.1608 122.057 24.0795 122.057C23.9983 122.057 23.9318 121.857 23.9318 121.613C23.9318 121.369 23.8653 121.169 23.7841 121.169C23.7028 121.169 23.6364 120.969 23.6364 120.724C23.6364 120.48 23.5699 120.28 23.4886 120.28C23.4074 120.28 23.3409 120.013 23.3409 119.687C23.3409 119.361 23.2744 119.095 23.1932 119.095C23.1119 119.095 23.0455 118.961 23.0455 118.799C23.0455 118.601 22.9469 118.502 22.75 118.502C22.5201 118.502 22.4545 118.601 22.4545 118.947ZM158.955 118.799C158.955 118.961 158.888 119.095 158.807 119.095C158.726 119.095 158.659 119.361 158.659 119.687C158.659 120.013 158.593 120.28 158.511 120.28C158.43 120.28 158.364 120.48 158.364 120.724C158.364 120.969 158.297 121.169 158.216 121.169C158.135 121.169 158.068 121.369 158.068 121.613C158.068 121.857 158.002 122.057 157.92 122.057C157.839 122.057 157.773 122.257 157.773 122.502C157.773 122.746 157.706 122.946 157.625 122.946C157.544 122.946 157.477 123.146 157.477 123.39C157.477 123.635 157.411 123.835 157.33 123.835C157.248 123.835 157.182 124.035 157.182 124.279C157.182 124.524 157.115 124.724 157.034 124.724C156.953 124.724 156.886 124.924 156.886 125.168C156.886 125.412 156.82 125.612 156.739 125.612C156.657 125.612 156.591 125.812 156.591 126.057C156.591 126.301 156.524 126.501 156.443 126.501C156.362 126.501 156.295 126.634 156.295 126.797C156.295 127.087 156.197 127.094 151.716 127.094C149.197 127.094 147.136 127.132 147.136 127.178C147.136 127.34 147.56 127.686 147.758 127.686C147.868 127.686 148.053 127.819 148.17 127.982C148.288 128.145 148.475 128.279 148.587 128.279C148.699 128.279 148.977 128.479 149.205 128.723C149.432 128.967 149.698 129.167 149.795 129.167C149.893 129.167 150.159 129.367 150.386 129.612C150.614 129.856 150.88 130.056 150.977 130.056C151.075 130.056 151.341 130.256 151.568 130.501C151.796 130.745 152.074 130.945 152.186 130.945C152.298 130.945 152.485 131.078 152.602 131.241C152.719 131.404 152.907 131.538 153.019 131.538C153.131 131.538 153.409 131.737 153.636 131.982C153.864 132.226 154.157 132.426 154.286 132.426C154.424 132.426 154.523 132.55 154.523 132.723C154.523 132.885 154.456 133.019 154.375 133.019C154.294 133.019 154.227 133.219 154.227 133.463C154.227 133.708 154.161 133.908 154.08 133.908C153.998 133.908 153.932 134.108 153.932 134.352C153.932 134.596 153.865 134.796 153.784 134.796C153.703 134.796 153.636 134.996 153.636 135.241C153.636 135.485 153.57 135.685 153.489 135.685C153.407 135.685 153.341 135.885 153.341 136.129C153.341 136.374 153.274 136.574 153.193 136.574C153.112 136.574 153.045 136.774 153.045 137.018C153.045 137.263 152.979 137.463 152.898 137.463C152.816 137.463 152.75 137.663 152.75 137.907C152.75 138.151 152.684 138.351 152.602 138.351C152.521 138.351 152.455 138.551 152.455 138.796C152.455 139.04 152.388 139.24 152.307 139.24C152.226 139.24 152.159 139.44 152.159 139.685C152.159 139.929 152.093 140.129 152.011 140.129C151.93 140.129 151.864 140.329 151.864 140.573C151.864 140.818 151.797 141.018 151.716 141.018C151.635 141.018 151.568 141.084 151.568 141.166C151.568 141.247 151.701 141.314 151.864 141.314C152.026 141.314 152.159 141.247 152.159 141.166C152.159 141.084 152.265 141.018 152.395 141.018C152.525 141.018 152.818 140.818 153.045 140.573C153.273 140.329 153.551 140.129 153.663 140.129C153.775 140.129 153.962 139.996 154.08 139.833C154.197 139.67 154.384 139.536 154.496 139.536C154.608 139.536 154.886 139.336 155.114 139.092C155.341 138.848 155.607 138.648 155.705 138.648C155.802 138.648 156.068 138.448 156.295 138.203C156.523 137.959 156.801 137.759 156.913 137.759C157.025 137.759 157.212 137.626 157.33 137.463C157.447 137.3 157.634 137.166 157.746 137.166C157.858 137.166 158.136 136.966 158.364 136.722C158.657 136.407 158.916 136.278 159.25 136.278C159.584 136.278 159.843 136.407 160.136 136.722C160.364 136.966 160.642 137.166 160.754 137.166C160.866 137.166 161.053 137.3 161.17 137.463C161.288 137.626 161.475 137.759 161.587 137.759C161.699 137.759 161.977 137.959 162.205 138.203C162.432 138.448 162.698 138.648 162.795 138.648C162.893 138.648 163.159 138.848 163.386 139.092C163.614 139.336 163.892 139.536 164.004 139.536C164.116 139.536 164.303 139.67 164.42 139.833C164.538 139.996 164.725 140.129 164.837 140.129C164.949 140.129 165.227 140.329 165.455 140.573C165.682 140.818 165.975 141.018 166.105 141.018C166.235 141.018 166.341 141.084 166.341 141.166C166.341 141.247 166.407 141.314 166.489 141.314C166.57 141.314 166.636 141.047 166.636 140.721C166.636 140.396 166.57 140.129 166.489 140.129C166.407 140.129 166.341 139.929 166.341 139.685C166.341 139.44 166.274 139.24 166.193 139.24C166.112 139.24 166.045 139.04 166.045 138.796C166.045 138.551 165.979 138.351 165.898 138.351C165.816 138.351 165.75 138.218 165.75 138.055C165.75 137.892 165.684 137.759 165.602 137.759C165.521 137.759 165.455 137.559 165.455 137.314C165.455 137.07 165.388 136.87 165.307 136.87C165.226 136.87 165.159 136.603 165.159 136.278C165.159 135.952 165.093 135.685 165.011 135.685C164.93 135.685 164.864 135.485 164.864 135.241C164.864 134.996 164.797 134.796 164.716 134.796C164.635 134.796 164.568 134.596 164.568 134.352C164.568 134.108 164.502 133.908 164.42 133.908C164.339 133.908 164.273 133.708 164.273 133.463C164.273 133.219 164.206 133.019 164.125 133.019C164.044 133.019 163.977 132.885 163.977 132.723C163.977 132.55 164.076 132.426 164.213 132.426C164.343 132.426 164.636 132.226 164.864 131.982C165.091 131.737 165.357 131.538 165.455 131.538C165.552 131.538 165.818 131.338 166.045 131.093C166.273 130.849 166.551 130.649 166.663 130.649C166.775 130.649 166.962 130.515 167.08 130.352C167.197 130.19 167.384 130.056 167.496 130.056C167.608 130.056 167.886 129.856 168.114 129.612C168.341 129.367 168.607 129.167 168.705 129.167C168.802 129.167 169.068 128.967 169.295 128.723C169.523 128.479 169.801 128.279 169.913 128.279C170.025 128.279 170.212 128.145 170.33 127.982C170.447 127.819 170.632 127.686 170.742 127.686C170.94 127.686 171.364 127.34 171.364 127.178C171.364 127.132 169.331 127.094 166.847 127.094C161.843 127.094 161.909 127.106 161.909 126.141C161.909 125.85 161.843 125.612 161.761 125.612C161.68 125.612 161.614 125.412 161.614 125.168C161.614 124.924 161.547 124.724 161.466 124.724C161.385 124.724 161.318 124.524 161.318 124.279C161.318 124.035 161.252 123.835 161.17 123.835C161.089 123.835 161.023 123.635 161.023 123.39C161.023 123.146 160.956 122.946 160.875 122.946C160.794 122.946 160.727 122.746 160.727 122.502C160.727 122.257 160.661 122.057 160.58 122.057C160.498 122.057 160.432 121.857 160.432 121.613C160.432 121.369 160.365 121.169 160.284 121.169C160.203 121.169 160.136 120.969 160.136 120.724C160.136 120.48 160.07 120.28 159.989 120.28C159.907 120.28 159.841 120.08 159.841 119.835C159.841 119.591 159.774 119.391 159.693 119.391C159.612 119.391 159.545 119.191 159.545 118.947C159.545 118.601 159.48 118.502 159.25 118.502C159.053 118.502 158.955 118.601 158.955 118.799ZM51.4091 147.535C51.4091 147.698 51.3426 147.832 51.2614 147.832C51.1801 147.832 51.1136 148.098 51.1136 148.424C51.1136 148.75 51.0472 149.017 50.9659 149.017C50.8847 149.017 50.8182 149.15 50.8182 149.313C50.8182 149.476 50.7517 149.609 50.6705 149.609C50.5892 149.609 50.5227 149.809 50.5227 150.053C50.5227 150.298 50.4562 150.498 50.375 150.498C50.2937 150.498 50.2273 150.698 50.2273 150.942C50.2273 151.187 50.1608 151.387 50.0795 151.387C49.9983 151.387 49.9318 151.653 49.9318 151.979C49.9318 152.305 49.8653 152.572 49.7841 152.572C49.7028 152.572 49.6364 152.772 49.6364 153.016C49.6364 153.26 49.5699 153.46 49.4886 153.46C49.4074 153.46 49.3409 153.66 49.3409 153.905C49.3409 154.149 49.2744 154.349 49.1932 154.349C49.1119 154.349 49.0455 154.549 49.0455 154.794C49.0455 155.038 48.979 155.238 48.8977 155.238C48.8165 155.238 48.75 155.371 48.75 155.534C48.75 155.824 48.6515 155.83 44.0227 155.83C41.4227 155.83 39.2955 155.869 39.2955 155.915C39.2955 156.067 39.7129 156.423 39.8903 156.423C39.9855 156.423 40.2496 156.623 40.4773 156.867C40.7049 157.112 40.9708 157.312 41.0682 157.312C41.1655 157.312 41.4314 157.512 41.6591 157.756C41.8867 158.001 42.1648 158.201 42.2766 158.201C42.3886 158.201 42.576 158.334 42.6932 158.497C42.8103 158.66 42.9978 158.793 43.1098 158.793C43.2216 158.793 43.4996 158.993 43.7273 159.237C43.9549 159.482 44.2208 159.682 44.3182 159.682C44.4155 159.682 44.6814 159.882 44.9091 160.126C45.1367 160.371 45.4148 160.571 45.5266 160.571C45.6386 160.571 45.826 160.704 45.9432 160.867C46.0603 161.03 46.2744 161.163 46.419 161.163C46.6272 161.163 46.6818 161.286 46.6818 161.756C46.6818 162.081 46.6153 162.348 46.5341 162.348C46.4528 162.348 46.3864 162.615 46.3864 162.941C46.3864 163.266 46.3199 163.533 46.2386 163.533C46.1574 163.533 46.0909 163.666 46.0909 163.829C46.0909 163.992 46.0244 164.126 45.9432 164.126C45.8619 164.126 45.7955 164.392 45.7955 164.718C45.7955 165.044 45.729 165.311 45.6477 165.311C45.5665 165.311 45.5 165.511 45.5 165.755C45.5 165.999 45.4335 166.199 45.3523 166.199C45.271 166.199 45.2045 166.399 45.2045 166.644C45.2045 166.888 45.1381 167.088 45.0568 167.088C44.9756 167.088 44.9091 167.288 44.9091 167.533C44.9091 167.777 44.8426 167.977 44.7614 167.977C44.6801 167.977 44.6136 168.177 44.6136 168.421C44.6136 168.666 44.5472 168.866 44.4659 168.866C44.3847 168.866 44.3182 169.066 44.3182 169.31C44.3182 169.555 44.2517 169.754 44.1705 169.754C44.0892 169.754 44.0227 169.888 44.0227 170.051C44.0227 170.214 44.0892 170.347 44.1705 170.347C44.2517 170.347 44.3182 170.28 44.3182 170.199C44.3182 170.117 44.4365 170.051 44.581 170.051C44.7256 170.051 44.9397 169.917 45.0568 169.754C45.174 169.592 45.3614 169.458 45.4734 169.458C45.5852 169.458 45.8633 169.258 46.0909 169.014C46.3186 168.769 46.5845 168.569 46.6818 168.569C46.7792 168.569 47.0451 168.369 47.2727 168.125C47.5004 167.881 47.7784 167.681 47.8902 167.681C48.0022 167.681 48.1897 167.547 48.3068 167.384C48.424 167.221 48.6114 167.088 48.7234 167.088C48.8352 167.088 49.1133 166.888 49.3409 166.644C49.5686 166.399 49.8345 166.199 49.9318 166.199C50.0292 166.199 50.2951 165.999 50.5227 165.755C50.7504 165.511 51.043 165.311 51.1729 165.311C51.3029 165.311 51.4091 165.244 51.4091 165.163C51.4091 164.864 51.8923 165.026 52.2955 165.459C52.5231 165.703 52.789 165.903 52.8864 165.903C52.9837 165.903 53.2496 166.103 53.4773 166.348C53.7049 166.592 53.9829 166.792 54.0948 166.792C54.2067 166.792 54.3942 166.925 54.5114 167.088C54.6285 167.251 54.816 167.384 54.928 167.384C55.0398 167.384 55.3178 167.584 55.5455 167.829C55.7731 168.073 56.039 168.273 56.1364 168.273C56.2337 168.273 56.4996 168.473 56.7273 168.718C56.9549 168.962 57.2329 169.162 57.3448 169.162C57.4567 169.162 57.6442 169.295 57.7614 169.458C57.8785 169.621 58.0779 169.754 58.2045 169.754C58.3311 169.754 58.5306 169.888 58.6477 170.051C58.9473 170.467 59.0909 170.419 59.0909 169.903C59.0909 169.658 59.0244 169.458 58.9432 169.458C58.8619 169.458 58.7955 169.258 58.7955 169.014C58.7955 168.769 58.729 168.569 58.6477 168.569C58.5665 168.569 58.5 168.369 58.5 168.125C58.5 167.881 58.4335 167.681 58.3523 167.681C58.271 167.681 58.2045 167.481 58.2045 167.236C58.2045 166.992 58.1381 166.792 58.0568 166.792C57.9756 166.792 57.9091 166.592 57.9091 166.348C57.9091 166.103 57.8426 165.903 57.7614 165.903C57.6801 165.903 57.6136 165.703 57.6136 165.459C57.6136 165.214 57.5472 165.014 57.4659 165.014C57.3847 165.014 57.3182 164.814 57.3182 164.57C57.3182 164.326 57.2517 164.126 57.1705 164.126C57.0892 164.126 57.0227 163.926 57.0227 163.681C57.0227 163.437 56.9562 163.237 56.875 163.237C56.7937 163.237 56.7273 162.97 56.7273 162.644C56.7273 162.318 56.6608 162.052 56.5795 162.052C56.4983 162.052 56.4318 161.949 56.4318 161.823C56.4318 161.557 57.0774 160.867 57.326 160.867C57.4191 160.867 57.6814 160.667 57.9091 160.422C58.1367 160.178 58.4026 159.978 58.5 159.978C58.5974 159.978 58.8633 159.778 59.0909 159.534C59.3186 159.289 59.5845 159.089 59.6818 159.089C59.7792 159.089 60.0451 158.889 60.2727 158.645C60.5004 158.4 60.7784 158.201 60.8902 158.201C61.0022 158.201 61.1897 158.067 61.3068 157.904C61.424 157.741 61.6114 157.608 61.7234 157.608C61.8352 157.608 62.1133 157.408 62.3409 157.164C62.5686 156.919 62.8309 156.719 62.924 156.719C63.0928 156.719 63.8182 156.064 63.8182 155.911C63.8182 155.867 61.6909 155.83 59.0909 155.83H54.3636V155.386C54.3636 155.142 54.2972 154.942 54.2159 154.942C54.1347 154.942 54.0682 154.742 54.0682 154.497C54.0682 154.253 54.0017 154.053 53.9205 154.053C53.8392 154.053 53.7727 153.853 53.7727 153.609C53.7727 153.364 53.7062 153.164 53.625 153.164C53.5437 153.164 53.4773 152.964 53.4773 152.72C53.4773 152.475 53.4108 152.275 53.3295 152.275C53.2483 152.275 53.1818 152.075 53.1818 151.831C53.1818 151.587 53.1153 151.387 53.0341 151.387C52.9528 151.387 52.8864 151.12 52.8864 150.794C52.8864 150.468 52.8199 150.202 52.7386 150.202C52.6574 150.202 52.5909 150.002 52.5909 149.757C52.5909 149.513 52.5244 149.313 52.4432 149.313C52.3619 149.313 52.2955 149.113 52.2955 148.868C52.2955 148.624 52.229 148.424 52.1477 148.424C52.0665 148.424 52 148.253 52 148.043C52 147.7 51.7097 147.239 51.4934 147.239C51.4471 147.239 51.4091 147.372 51.4091 147.535ZM130.185 147.461C130.083 147.576 130 147.84 130 148.048C130 148.255 129.934 148.424 129.852 148.424C129.771 148.424 129.705 148.624 129.705 148.868C129.705 149.113 129.638 149.313 129.557 149.313C129.476 149.313 129.409 149.513 129.409 149.757C129.409 150.002 129.343 150.202 129.261 150.202C129.18 150.202 129.114 150.468 129.114 150.794C129.114 151.12 129.047 151.387 128.966 151.387C128.885 151.387 128.818 151.587 128.818 151.831C128.818 152.075 128.752 152.275 128.67 152.275C128.589 152.275 128.523 152.475 128.523 152.72C128.523 152.964 128.456 153.164 128.375 153.164C128.294 153.164 128.227 153.364 128.227 153.609C128.227 153.853 128.161 154.053 128.08 154.053C127.998 154.053 127.932 154.253 127.932 154.497C127.932 154.742 127.865 154.942 127.784 154.942C127.703 154.942 127.636 155.142 127.636 155.386V155.83H122.909C120.309 155.83 118.182 155.867 118.182 155.911C118.182 156.064 118.907 156.719 119.076 156.719C119.169 156.719 119.431 156.919 119.659 157.164C119.887 157.408 120.165 157.608 120.277 157.608C120.389 157.608 120.576 157.741 120.693 157.904C120.81 158.067 120.998 158.201 121.11 158.201C121.222 158.201 121.5 158.4 121.727 158.645C121.955 158.889 122.221 159.089 122.318 159.089C122.416 159.089 122.681 159.289 122.909 159.534C123.137 159.778 123.415 159.978 123.527 159.978C123.639 159.978 123.826 160.111 123.943 160.274C124.06 160.437 124.243 160.571 124.35 160.571C124.619 160.571 125.568 161.547 125.568 161.825C125.568 161.95 125.502 162.052 125.42 162.052C125.339 162.052 125.273 162.318 125.273 162.644C125.273 162.97 125.206 163.237 125.125 163.237C125.044 163.237 124.977 163.437 124.977 163.681C124.977 163.926 124.911 164.126 124.83 164.126C124.748 164.126 124.682 164.326 124.682 164.57C124.682 164.814 124.615 165.014 124.534 165.014C124.453 165.014 124.386 165.214 124.386 165.459C124.386 165.703 124.32 165.903 124.239 165.903C124.157 165.903 124.091 166.103 124.091 166.348C124.091 166.592 124.024 166.792 123.943 166.792C123.862 166.792 123.795 166.992 123.795 167.236C123.795 167.481 123.729 167.681 123.648 167.681C123.566 167.681 123.5 167.881 123.5 168.125C123.5 168.369 123.434 168.569 123.352 168.569C123.271 168.569 123.205 168.769 123.205 169.014C123.205 169.258 123.138 169.458 123.057 169.458C122.976 169.458 122.909 169.658 122.909 169.903C122.909 170.419 123.053 170.467 123.352 170.051C123.469 169.888 123.669 169.754 123.795 169.754C123.922 169.754 124.121 169.621 124.239 169.458C124.356 169.295 124.543 169.162 124.655 169.162C124.767 169.162 125.045 168.962 125.273 168.718C125.5 168.473 125.766 168.273 125.864 168.273C125.961 168.273 126.227 168.073 126.455 167.829C126.682 167.584 126.96 167.384 127.072 167.384C127.184 167.384 127.371 167.251 127.489 167.088C127.606 166.925 127.793 166.792 127.905 166.792C128.017 166.792 128.295 166.592 128.523 166.348C128.75 166.103 129.016 165.903 129.114 165.903C129.211 165.903 129.477 165.703 129.705 165.459C130.108 165.026 130.591 164.864 130.591 165.163C130.591 165.244 130.697 165.311 130.827 165.311C130.957 165.311 131.25 165.511 131.477 165.755C131.705 165.999 131.971 166.199 132.068 166.199C132.166 166.199 132.431 166.399 132.659 166.644C132.887 166.888 133.165 167.088 133.277 167.088C133.389 167.088 133.576 167.221 133.693 167.384C133.81 167.547 133.998 167.681 134.11 167.681C134.222 167.681 134.5 167.881 134.727 168.125C134.955 168.369 135.221 168.569 135.318 168.569C135.416 168.569 135.681 168.769 135.909 169.014C136.137 169.258 136.415 169.458 136.527 169.458C136.639 169.458 136.826 169.592 136.943 169.754C137.06 169.917 137.274 170.051 137.419 170.051C137.563 170.051 137.682 170.117 137.682 170.199C137.682 170.28 137.748 170.347 137.83 170.347C137.911 170.347 137.977 170.214 137.977 170.051C137.977 169.888 137.911 169.754 137.83 169.754C137.748 169.754 137.682 169.555 137.682 169.31C137.682 169.066 137.615 168.866 137.534 168.866C137.453 168.866 137.386 168.666 137.386 168.421C137.386 168.177 137.32 167.977 137.239 167.977C137.157 167.977 137.091 167.777 137.091 167.533C137.091 167.288 137.024 167.088 136.943 167.088C136.862 167.088 136.795 166.888 136.795 166.644C136.795 166.399 136.729 166.199 136.648 166.199C136.566 166.199 136.5 165.999 136.5 165.755C136.5 165.511 136.434 165.311 136.352 165.311C136.271 165.311 136.205 165.044 136.205 164.718C136.205 164.392 136.138 164.126 136.057 164.126C135.976 164.126 135.909 163.992 135.909 163.829C135.909 163.666 135.843 163.533 135.761 163.533C135.68 163.533 135.614 163.266 135.614 162.941C135.614 162.615 135.547 162.348 135.466 162.348C135.385 162.348 135.318 162.081 135.318 161.756C135.318 161.286 135.373 161.163 135.581 161.163C135.726 161.163 135.94 161.03 136.057 160.867C136.174 160.704 136.361 160.571 136.473 160.571C136.585 160.571 136.863 160.371 137.091 160.126C137.319 159.882 137.584 159.682 137.682 159.682C137.779 159.682 138.045 159.482 138.273 159.237C138.5 158.993 138.778 158.793 138.89 158.793C139.002 158.793 139.19 158.66 139.307 158.497C139.424 158.334 139.611 158.201 139.723 158.201C139.835 158.201 140.113 158.001 140.341 157.756C140.569 157.512 140.834 157.312 140.932 157.312C141.029 157.312 141.295 157.112 141.523 156.867C141.75 156.623 142.015 156.423 142.11 156.423C142.287 156.423 142.705 156.067 142.705 155.915C142.705 155.869 140.577 155.83 137.977 155.83C133.349 155.83 133.25 155.824 133.25 155.534C133.25 155.371 133.184 155.238 133.102 155.238C133.021 155.238 132.955 155.038 132.955 154.794C132.955 154.549 132.888 154.349 132.807 154.349C132.726 154.349 132.659 154.149 132.659 153.905C132.659 153.66 132.593 153.46 132.511 153.46C132.43 153.46 132.364 153.26 132.364 153.016C132.364 152.772 132.297 152.572 132.216 152.572C132.135 152.572 132.068 152.305 132.068 151.979C132.068 151.653 132.002 151.387 131.92 151.387C131.839 151.387 131.773 151.187 131.773 150.942C131.773 150.698 131.706 150.498 131.625 150.498C131.544 150.498 131.477 150.298 131.477 150.053C131.477 149.809 131.411 149.609 131.33 149.609C131.248 149.609 131.182 149.476 131.182 149.313C131.182 149.15 131.115 149.017 131.034 149.017C130.953 149.017 130.886 148.75 130.886 148.424C130.886 148.098 130.82 147.832 130.739 147.832C130.657 147.832 130.591 147.698 130.591 147.535C130.591 147.19 130.445 147.164 130.185 147.461ZM90.7045 158.349C90.7045 158.593 90.6381 158.793 90.5568 158.793C90.4756 158.793 90.4091 158.993 90.4091 159.237C90.4091 159.482 90.3426 159.682 90.2614 159.682C90.1801 159.682 90.1136 159.948 90.1136 160.274C90.1136 160.6 90.0472 160.867 89.9659 160.867C89.8847 160.867 89.8182 161 89.8182 161.163C89.8182 161.326 89.7517 161.459 89.6704 161.459C89.5892 161.459 89.5227 161.659 89.5227 161.904C89.5227 162.148 89.4562 162.348 89.375 162.348C89.2937 162.348 89.2273 162.548 89.2273 162.792C89.2273 163.037 89.1608 163.237 89.0795 163.237C88.9983 163.237 88.9318 163.503 88.9318 163.829C88.9318 164.155 88.8653 164.422 88.7841 164.422C88.7028 164.422 88.6364 164.555 88.6364 164.718C88.6364 164.881 88.5699 165.014 88.4886 165.014C88.4074 165.014 88.3409 165.214 88.3409 165.459C88.3409 165.703 88.2744 165.903 88.1932 165.903C88.1119 165.903 88.0454 166.036 88.0454 166.199C88.0454 166.489 87.9469 166.496 83.4659 166.496C80.9472 166.496 78.8864 166.532 78.8864 166.576C78.8864 166.729 79.6117 167.384 79.7805 167.384C79.8736 167.384 80.136 167.584 80.3636 167.829C80.5913 168.073 80.8693 168.273 80.9811 168.273C81.0931 168.273 81.2806 168.407 81.3977 168.569C81.5149 168.732 81.7023 168.866 81.8143 168.866C81.9261 168.866 82.2042 169.066 82.4318 169.31C82.6595 169.555 82.9254 169.754 83.0227 169.754C83.1201 169.754 83.386 169.954 83.6136 170.199C83.8413 170.443 84.1193 170.643 84.2311 170.643C84.3431 170.643 84.5306 170.777 84.6477 170.94C84.7649 171.102 84.9479 171.236 85.0546 171.236C85.3397 171.236 86.3723 172.313 86.1565 172.386C86.0579 172.419 85.9773 172.64 85.9773 172.877C85.9773 173.115 85.9108 173.31 85.8295 173.31C85.7483 173.31 85.6818 173.51 85.6818 173.754C85.6818 173.998 85.6153 174.198 85.5341 174.198C85.4528 174.198 85.3864 174.398 85.3864 174.643C85.3864 174.887 85.3199 175.087 85.2386 175.087C85.1574 175.087 85.0909 175.354 85.0909 175.68C85.0909 176.005 85.0244 176.272 84.9432 176.272C84.8619 176.272 84.7954 176.405 84.7954 176.568C84.7954 176.731 84.729 176.865 84.6477 176.865C84.5665 176.865 84.5 177.131 84.5 177.457C84.5 177.783 84.4335 178.05 84.3523 178.05C84.271 178.05 84.2045 178.25 84.2045 178.494C84.2045 178.738 84.1381 178.938 84.0568 178.938C83.9756 178.938 83.9091 179.138 83.9091 179.383C83.9091 179.627 83.8426 179.827 83.7614 179.827C83.6801 179.827 83.6136 180.022 83.6136 180.259C83.6136 180.497 83.5306 180.721 83.429 180.757C83.3216 180.796 83.2991 180.878 83.3753 180.955C83.4516 181.031 83.534 181.009 83.5723 180.901C83.6086 180.799 83.751 180.716 83.8889 180.716C84.0265 180.716 84.2351 180.583 84.3523 180.42C84.4694 180.257 84.6554 180.123 84.7657 180.123C84.8761 180.123 85.2218 179.857 85.5341 179.531C85.8464 179.205 86.1921 178.938 86.3024 178.938C86.4128 178.938 86.5988 178.805 86.7159 178.642C86.8331 178.479 87.0325 178.346 87.1591 178.346C87.2857 178.346 87.4851 178.213 87.6023 178.05C87.7194 177.887 87.9069 177.753 88.0189 177.753C88.1307 177.753 88.4087 177.553 88.6364 177.309C88.864 177.065 89.1299 176.865 89.2273 176.865C89.3246 176.865 89.5905 176.665 89.8182 176.42C90.0458 176.176 90.3385 175.976 90.4683 175.976C90.5983 175.976 90.7045 175.909 90.7045 175.828C90.7045 175.746 90.8375 175.68 91 175.68C91.1625 175.68 91.2954 175.746 91.2954 175.828C91.2954 175.909 91.4017 175.976 91.5317 175.976C91.6615 175.976 91.9542 176.176 92.1818 176.42C92.4095 176.665 92.6754 176.865 92.7727 176.865C92.8701 176.865 93.136 177.065 93.3636 177.309C93.5913 177.553 93.8693 177.753 93.9811 177.753C94.0931 177.753 94.2806 177.887 94.3977 178.05C94.5149 178.213 94.7143 178.346 94.8409 178.346C94.9675 178.346 95.1669 178.479 95.2841 178.642C95.4012 178.805 95.5872 178.938 95.6976 178.938C95.8079 178.938 96.1536 179.205 96.4659 179.531C96.7782 179.857 97.1239 180.123 97.2342 180.123C97.3446 180.123 97.5306 180.257 97.6477 180.42C97.7649 180.583 97.9735 180.716 98.1111 180.716C98.249 180.716 98.3914 180.799 98.4277 180.901C98.466 181.009 98.5484 181.031 98.6246 180.955C98.7009 180.878 98.6784 180.796 98.571 180.757C98.4695 180.721 98.3864 180.497 98.3864 180.259C98.3864 180.022 98.3199 179.827 98.2386 179.827C98.1574 179.827 98.0909 179.627 98.0909 179.383C98.0909 179.138 98.0244 178.938 97.9432 178.938C97.8619 178.938 97.7954 178.672 97.7954 178.346C97.7954 178.02 97.729 177.753 97.6477 177.753C97.5665 177.753 97.5 177.553 97.5 177.309C97.5 177.065 97.4335 176.865 97.3523 176.865C97.271 176.865 97.2045 176.731 97.2045 176.568C97.2045 176.405 97.1381 176.272 97.0568 176.272C96.9756 176.272 96.9091 176.005 96.9091 175.68C96.9091 175.354 96.8426 175.087 96.7614 175.087C96.6801 175.087 96.6136 174.887 96.6136 174.643C96.6136 174.398 96.5472 174.198 96.4659 174.198C96.3847 174.198 96.3182 173.998 96.3182 173.754C96.3182 173.51 96.2517 173.31 96.1704 173.31C96.0892 173.31 96.0227 173.115 96.0227 172.877C96.0227 172.64 95.9421 172.419 95.8435 172.386C95.6277 172.313 96.6603 171.236 96.9454 171.236C97.0521 171.236 97.2351 171.102 97.3523 170.94C97.4694 170.777 97.6569 170.643 97.7689 170.643C97.8807 170.643 98.1587 170.443 98.3864 170.199C98.614 169.954 98.8799 169.754 98.9773 169.754C99.0746 169.754 99.3405 169.555 99.5682 169.31C99.7958 169.066 100.074 168.866 100.186 168.866C100.298 168.866 100.485 168.732 100.602 168.569C100.719 168.407 100.907 168.273 101.019 168.273C101.131 168.273 101.409 168.073 101.636 167.829C101.864 167.584 102.126 167.384 102.219 167.384C102.388 167.384 103.114 166.729 103.114 166.576C103.114 166.532 101.053 166.496 98.5341 166.496C94.0531 166.496 93.9545 166.489 93.9545 166.199C93.9545 166.036 93.8881 165.903 93.8068 165.903C93.7256 165.903 93.6591 165.703 93.6591 165.459C93.6591 165.214 93.5926 165.014 93.5114 165.014C93.4301 165.014 93.3636 164.881 93.3636 164.718C93.3636 164.555 93.2972 164.422 93.2159 164.422C93.1347 164.422 93.0682 164.155 93.0682 163.829C93.0682 163.503 93.0017 163.237 92.9204 163.237C92.8392 163.237 92.7727 163.037 92.7727 162.792C92.7727 162.548 92.7062 162.348 92.625 162.348C92.5437 162.348 92.4773 162.148 92.4773 161.904C92.4773 161.659 92.4108 161.459 92.3295 161.459C92.2483 161.459 92.1818 161.326 92.1818 161.163C92.1818 161 92.1153 160.867 92.0341 160.867C91.9528 160.867 91.8864 160.6 91.8864 160.274C91.8864 159.948 91.8199 159.682 91.7386 159.682C91.6574 159.682 91.5909 159.482 91.5909 159.237C91.5909 158.993 91.5244 158.793 91.4432 158.793C91.3619 158.793 91.2954 158.593 91.2954 158.349C91.2954 158.003 91.2299 157.904 91 157.904C90.7701 157.904 90.7045 158.003 90.7045 158.349Z" fill="#098C36"/>
</svg>
