<svg width="40" height="40" viewBox="0 0 40 40" fill="none" xmlns="http://www.w3.org/2000/svg">
<path d="M20 40C17.2917 40 14.7005 39.4727 12.2266 38.418C9.7526 37.3633 7.6237 35.944 5.83984 34.1602C4.05599 32.3763 2.63672 30.2474 1.58203 27.7734C0.527344 25.2995 0 22.7083 0 20C0 17.2917 0.527344 14.7005 1.58203 12.2266C2.63672 9.7526 4.05599 7.6237 5.83984 5.83984C7.6237 4.05599 9.7526 2.63672 12.2266 1.58203C14.7005 0.527344 17.2917 0 20 0C22.7083 0 25.2995 0.527344 27.7734 1.58203C30.2474 2.63672 32.3763 4.05599 34.1602 5.83984C35.944 7.6237 37.3633 9.7526 38.418 12.2266C39.4727 14.7005 40 17.2917 40 20C40 22.7083 39.4727 25.2995 38.418 27.7734C37.3633 30.2474 35.944 32.3763 34.1602 34.1602C32.3763 35.944 30.2474 37.3633 27.7734 38.418C25.2995 39.4727 22.7083 40 20 40ZM30 12.5C30 11.8229 29.7591 11.237 29.2773 10.7422C28.7956 10.2474 28.2031 10 27.5 10H12.5C11.8229 10 11.237 10.2474 10.7422 10.7422C10.2474 11.237 10 11.8229 10 12.5V15H14.4531C15.9635 13.3333 17.8125 12.5 20 12.5C22.1875 12.5 24.0365 13.3333 25.5469 15H30V12.5ZM15 20C15 21.3802 15.4883 22.5586 16.4648 23.5352C17.4414 24.5117 18.6198 25 20 25C21.3802 25 22.5586 24.5117 23.5352 23.5352C24.5117 22.5586 25 21.3802 25 20C25 18.6198 24.5117 17.4414 23.5352 16.4648C22.5586 15.4883 21.3802 15 20 15C18.6198 15 17.4414 15.4883 16.4648 16.4648C15.4883 17.4414 15 18.6198 15 20ZM30 17.5H27.0312C27.3438 18.3594 27.5 19.1927 27.5 20C27.5 22.0833 26.7708 23.8542 25.3125 25.3125C23.8542 26.7708 22.0833 27.5 20 27.5C17.9167 27.5 16.1458 26.7708 14.6875 25.3125C13.2292 23.8542 12.5 22.0833 12.5 20C12.5 19.1927 12.6562 18.3594 12.9688 17.5H10V27.5C10 28.2031 10.2409 28.7956 10.7227 29.2773C11.2044 29.7591 11.7969 30 12.5 30H27.5C28.2031 30 28.7956 29.7591 29.2773 29.2773C29.7591 28.7956 30 28.2031 30 27.5V17.5Z" fill="#098C36"/>
</svg>
