<svg width="512" height="159" viewBox="0 0 512 159" fill="none" xmlns="http://www.w3.org/2000/svg">
<path fill-rule="evenodd" clip-rule="evenodd" d="M135.924 0.262457C106.317 1.40813 84.4839 6.67936 70.9347 15.9523C67.8308 18.0764 62.195 23.648 60.4778 26.29C58.6465 29.1078 57.0334 32.5429 55.0214 37.9094C51.9735 46.0383 50.8243 50.7193 49.8873 58.8243C49.1933 64.8269 49.2128 66.9579 49.9625 66.9573C50.2818 66.9569 55.0937 66.8162 60.6559 66.6445C66.218 66.4726 74.0515 66.2442 78.0636 66.1366C82.0756 66.029 90.0583 65.8023 95.8029 65.6323C119.2 64.9408 122.268 64.9152 121.003 65.4205C112.922 68.6481 90.246 76.4706 82.3741 78.7467C71.1976 81.9782 71.6914 81.9161 54.5217 82.2415C40.2487 82.512 27.4094 83.0376 25.5088 83.4293C23.7687 83.7878 27.5586 80.9314 36.7897 74.9265C41.8854 71.612 46.3928 68.6135 46.8066 68.263C48.5494 66.7866 30.8197 75.2227 25.0115 78.6335C20.4543 81.3096 18.3962 83.6906 16.8325 88.0947C15.2174 92.6435 14.9077 98.4081 15.7297 108.622C15.9943 111.909 16.2138 116.038 16.2177 117.798L16.2247 120.999L10.1735 121.147C6.84543 121.228 3.88114 121.403 3.5867 121.533C1.61117 122.413 1.49081 128.789 3.3231 135.513C4.25847 138.946 6.12326 143.594 7.46216 145.829C9.21354 148.754 10.7945 150.235 12.7415 150.775C17.7493 152.165 33.4046 153.51 53.3612 154.263C58.3763 154.453 63.4494 154.675 64.6348 154.759C65.8201 154.842 75.4763 155.014 86.093 155.141L105.396 155.373L106.089 153.754C107.536 150.375 109.717 143.478 109.375 143.363C108.765 143.157 107.669 144.421 106.837 146.287C105.64 148.974 104.819 149.959 103.128 150.743C101.695 151.407 101.11 151.446 93.1503 151.414C88.4999 151.395 81.1141 151.127 76.7373 150.818C56.3387 149.376 14.6341 145.311 12.8148 144.587C12.3068 144.385 11.2945 143.541 10.5647 142.711C7.84015 139.612 6.0964 134.408 6.35834 130.159C6.53905 127.227 7.38357 125.714 9.37866 124.747C11.7796 123.583 20.2825 123.792 42.2534 125.554C57.115 126.746 62.8718 127.041 71.2663 127.041C90.1038 127.041 104.02 125.172 109.611 121.891C110.405 121.424 111.055 120.99 111.055 120.924C111.055 120.858 110.377 121.008 109.548 121.258C105.241 122.556 100.184 122.849 75.0794 123.255C63.9726 123.435 60.7311 123.358 47.7244 122.609C39.6091 122.142 29.3883 121.587 25.0115 121.378C20.6347 121.169 17.0381 120.977 17.0188 120.951C16.9996 120.926 17.0742 120.158 17.1846 119.245L17.3852 117.585L20.701 117.62C22.5246 117.638 32.5744 117.768 43.0339 117.909L62.0508 118.164L61.8243 120.281C61.5717 122.645 61.7474 122.794 63.906 122.04C64.7843 121.734 64.959 121.481 65.1073 120.297C65.2024 119.536 65.5174 116.897 65.8072 114.432C66.4455 108.999 68.4141 95.4481 69.1482 91.4314C69.6353 88.7666 69.7659 88.4725 70.6704 88.004C71.2145 87.7222 76.0977 85.877 81.5213 83.9034C94.953 79.0156 96.7764 78.264 103.263 74.9445C106.364 73.3579 112.332 70.4066 116.526 68.3865L124.153 64.7131L134.259 64.3313C139.818 64.1215 144.462 63.8423 144.58 63.7108C145.006 63.2357 145.965 49.9614 145.779 47.1007C145.349 40.4597 142.815 37.511 136.057 35.787C131.318 34.5779 127.545 34.2592 118.184 34.2768C106.769 34.2984 98.6962 34.9116 74.6384 37.5847C66.3387 38.507 60.9874 38.664 60.9874 37.9854C60.9874 37.3619 63.8469 32.5648 65.5841 30.2738C66.4147 29.1782 68.3262 27.0734 69.8315 25.5968C83.7955 11.8995 110.154 3.74264 148.523 1.24546C151.35 1.06154 155.304 0.799604 157.31 0.663491L160.957 0.416165L158.471 0.200043C155.127 -0.0904423 144.259 -0.0602306 135.924 0.262457ZM159.291 2.12654C153.003 4.31132 145.405 9.96434 137.739 18.1623C134.535 21.5887 128.545 29.2376 128.953 29.3811C129.729 29.6533 132.162 27.9353 141.063 20.8322C152.866 11.4128 160.288 7.74835 165.3 8.86548C167.479 9.35117 168.806 10.3172 170.195 12.43C172.286 15.6097 172.7 18.5239 174.891 45.545C174.995 46.8231 175.658 57.0406 176.365 68.2503C177.658 88.7384 177.742 89.4405 178.858 89.0863C179.649 88.8353 179.815 85.1463 179.785 68.4519C179.742 44.805 179.213 24.2841 178.532 19.894C177.056 10.3713 174.116 4.48396 169.685 2.17667C168.564 1.59271 167.567 1.4058 165.102 1.3165C162.338 1.21624 161.627 1.31517 159.291 2.12654ZM135.08 3.1952C132.257 3.87211 129.798 5.69835 124.153 11.3092C118.19 17.2351 115.476 19.4929 113.053 20.5423C110.476 21.6581 106.036 22.3988 93.4818 23.8061C84.3433 24.8306 76.4916 26.0934 75.9617 26.6239C75.8606 26.7249 77.4114 26.7265 79.4078 26.6276C81.4039 26.5283 86.0214 26.2956 89.6687 26.11C99.5391 25.6074 109.377 24.4923 114.768 23.2646L117.044 22.7464L124.411 15.6711C137.798 2.81607 138.091 2.47314 135.08 3.1952ZM182.526 6.94362C181.936 7.78487 181.516 9.24725 181.197 11.5794C180.997 13.0385 181.06 13.2211 182.2 14.4846C184.383 16.9038 194.241 23.8867 207.523 32.421C222.561 42.0837 241.833 53.6524 242.23 53.255C242.424 53.0608 238.892 50.1257 232.08 44.8209C229.254 42.6196 224.76 39.0434 222.093 36.8739C219.427 34.7047 215.174 31.2983 212.643 29.3044C210.112 27.3101 207.071 24.9063 205.886 23.9618C204.171 22.5953 194.842 15.3305 184.275 7.13385L183.057 6.18836L182.526 6.94362ZM182.344 22.2985C182.344 24.8541 182.413 25.1566 183.09 25.5898C184.262 26.3391 203.816 36.4892 209.699 39.402C217.457 43.243 218.813 43.3838 214.086 39.8578C211.45 37.8915 205.616 33.9432 199.42 29.9328C192.574 25.5012 182.909 19.4843 182.637 19.4843C182.476 19.4843 182.344 20.7508 182.344 22.2985ZM144.71 26.5356C147.214 27.9127 149.626 29.5756 151.246 31.0406L152.502 32.177L152.517 62.7637C152.531 90.1347 152.788 105.532 153.238 105.984C153.64 106.386 202.979 102.269 219.149 100.484C223.525 100.001 231.557 99.1617 231.814 99.161C231.94 99.1607 231.648 100.019 231.163 101.069C230.408 102.706 230.282 103.428 230.277 106.132C230.27 109.589 230.696 111.261 231.973 112.78C233.983 115.172 236.331 112.802 236.929 107.778L237.184 105.634L237.448 107.377C237.846 110.004 238.703 111.61 239.709 111.61C242.243 111.61 243.235 102.672 241.182 98.3413C240.455 96.8076 239.717 96.5914 238.811 97.6458C237.948 98.6514 237.392 100.466 237.382 102.314C237.379 103.045 237.231 103.866 237.054 104.14C236.807 104.523 236.731 104.408 236.725 103.642C236.712 102.126 235.259 99.2686 234.349 98.9681C233.021 98.5299 212.216 98.7308 201.033 99.2895C195.172 99.5823 185.175 100.042 178.817 100.311C172.459 100.58 165.002 100.896 162.246 101.014L157.235 101.228L157.037 100.438C156.262 97.3474 155.504 70.1091 155.486 44.715C155.479 34.8701 155.373 31.3949 155.06 30.7717C154.831 30.3153 153.961 29.4826 153.126 28.9213C151.582 27.8835 146.455 26.038 144.047 25.6532L142.721 25.4414L144.71 26.5356ZM183.453 55.1865C183.172 55.9201 183.624 58.9332 184.175 60.0006C184.642 60.9039 186.408 61.6897 191.131 63.0946C199.652 65.6297 226.754 71.3272 242.028 73.7938C244.322 74.1643 242.491 73.3373 237.22 71.622C234.302 70.6725 228.11 68.6484 223.46 67.1243C204.543 60.9235 184.755 54.6745 184.037 54.6745C183.824 54.6745 183.561 54.9049 183.453 55.1865ZM53.6815 86.2176C57.8371 86.5413 60.6562 87.1445 61.7348 87.9413C62.0544 88.1777 62.4543 88.8562 62.6234 89.4498L62.9305 90.5288H41.9052H20.8797L21.642 88.7859L22.404 87.0429L24.8682 86.7979C32.0027 86.0885 47.9048 85.7681 53.6815 86.2176ZM109.066 87.526C98.7403 89.1205 87.3898 93.0226 76.4057 98.754C72.7325 100.671 68.2469 103.454 68.8093 103.467C69.0079 103.472 70.6316 102.731 72.4175 101.821C77.5022 99.2291 85.1235 97.0393 94.8489 95.3757C104.836 93.6677 108.136 93.3699 117.19 93.3599L125.81 93.3506L127.497 94.2417C131.146 96.1692 134.046 100.081 138.727 109.386C140.439 112.789 142.082 115.596 142.76 116.274C143.783 117.299 144.093 117.419 145.705 117.419C149.939 117.419 159.313 115.716 169.548 113.086C176.818 111.218 180.694 110.011 178.531 110.289C175.645 110.659 165.306 111.775 160.129 112.275C157.12 112.565 153.367 113.022 151.789 113.29C149.841 113.621 148.656 113.675 148.092 113.461C147.025 113.055 145.92 111.566 144.375 108.456C139.826 99.2941 131.436 90.2735 125.533 88.1959C121.443 86.7564 115.591 86.5184 109.066 87.526ZM63.4292 93.7291C63.5452 94.576 63.64 95.547 63.64 95.887C63.64 96.4829 62.8675 96.5045 41.5902 96.5045C19.5574 96.5045 19.5405 96.5038 19.5405 95.8216C19.5405 95.4458 19.7072 94.4747 19.9115 93.6637L20.2822 92.1887H41.7504H63.2183L63.4292 93.7291ZM63.638 99.5753C63.6371 100.534 63.5402 102.551 63.4232 104.057L63.2103 106.796H40.7318C28.3687 106.796 18.1969 106.684 18.128 106.547C18.0587 106.41 18.0643 105.514 18.1402 104.555L18.2782 102.812H40.6277C62.7557 102.812 62.9769 102.806 62.9769 102.148C62.9769 101.491 62.7557 101.484 40.7179 101.484H18.4589L18.6644 100.239C18.7775 99.5547 18.8717 98.7327 18.8737 98.4134C18.877 97.8659 20.1655 97.8324 41.2587 97.8324H63.64L63.638 99.5753ZM209.603 102.336C207.829 103.58 206.733 107.462 206.75 112.44C206.775 119.913 209.517 124.359 212.431 121.652C213.821 120.36 214.589 117.613 214.764 113.307C214.941 108.927 214.57 106.575 213.307 104.069C212.196 101.863 211.045 101.325 209.603 102.336ZM122.074 102.663C121.113 102.922 119.854 103.379 119.276 103.678C117.482 104.607 114.867 107.519 113.781 109.797C112.672 112.124 111.276 116.794 111.447 117.606C111.51 117.902 112.318 117.049 113.423 115.522C118.087 109.079 121.079 106.316 123.655 106.075C124.774 105.97 124.819 106.01 124.917 107.173C125.011 108.303 124.925 108.424 123.576 109.078C119.706 110.954 116.641 116.797 115.146 125.147C114.467 128.942 114.388 138.061 115.002 141.82C116.314 149.854 119.567 156.493 123.079 158.305C124.727 159.155 127.056 159.235 128.487 158.49C129.987 157.709 131.89 155.633 133.118 153.437C134.356 151.224 136.07 146.269 136.43 143.868C136.558 143.011 136.832 142.202 137.039 142.07C137.395 141.843 147.475 137.651 159.377 132.78C162.337 131.568 164.719 130.536 164.669 130.487C164.62 130.437 163.466 130.688 162.105 131.043C152.237 133.621 143.809 135.023 142.104 134.37C141.2 134.024 141.166 133.936 141.379 132.512C141.502 131.69 141.434 129.265 141.226 127.123C139.723 111.574 133.82 102.076 125.715 102.17C124.673 102.182 123.035 102.404 122.074 102.663ZM240.304 102.547C241.204 103.449 240.41 106.274 239.427 105.666C238.905 105.343 238.693 103.901 239.035 103.001C239.392 102.059 239.705 101.947 240.304 102.547ZM198.908 104.156C195.362 107.956 194.982 120.657 198.254 125.976C199.653 128.25 201.831 127.962 203.143 125.33C205.463 120.681 205.779 112.937 203.881 107.294C203.163 105.16 202.469 104.132 201.335 103.525C200.277 102.958 199.945 103.045 198.908 104.156ZM234.004 106.049C233.929 107.48 233.78 107.958 233.407 107.958C232.755 107.958 232.513 104.321 233.116 103.593C233.761 102.815 234.12 103.81 234.004 106.049ZM187.779 105.64C184.444 108.979 183.242 120.074 185.468 126.966C186.512 130.2 188.248 132.359 189.805 132.359C191.983 132.359 194.053 128.711 194.977 123.247C195.754 118.648 194.919 110.996 193.291 107.802C191.782 104.841 189.479 103.938 187.779 105.64ZM62.9112 109.867L62.8111 111.61H60.6559C59.4705 111.61 49.3617 111.48 38.1916 111.32L17.8826 111.031V109.577V108.124H40.447H63.0117L62.9112 109.867ZM211.766 109.146C212.327 110.246 212.29 112.876 211.693 114.305C210.738 116.594 209.45 114.797 209.612 111.402C209.758 108.323 210.795 107.238 211.766 109.146ZM88.3162 109.085C85.7999 110.23 84.4215 112.983 85.1487 115.413C85.9478 118.083 88.1259 119.743 90.8292 119.743C93.5326 119.743 95.7107 118.083 96.5098 115.413C97.2369 112.983 95.8586 110.23 93.3423 109.085C91.6257 108.305 90.0328 108.305 88.3162 109.085ZM2.43713 109.774C2.05781 109.927 1.33331 110.545 0.827328 111.148C0.0010413 112.131 -0.0782046 112.439 0.0477942 114.183C0.164509 115.799 0.355827 116.291 1.1914 117.128C2.3539 118.292 4.32413 118.685 5.60434 118.009C6.05462 117.771 6.76353 117.07 7.17932 116.453C9.50798 112.992 6.15376 108.268 2.43713 109.774ZM201.579 111.527C202.041 112.286 202.236 113.196 202.236 114.598C202.236 115.999 202.041 116.909 201.579 117.668C200.808 118.936 200.567 118.985 199.72 118.049C199.206 117.48 199.089 116.838 199.089 114.598C199.089 112.357 199.206 111.716 199.72 111.147C200.567 110.21 200.808 110.26 201.579 111.527ZM9.64028 111.625C7.743 114.04 8.9453 118.321 11.4378 118.025C14.5731 117.653 14.4846 111.161 11.3396 110.844C10.5743 110.768 10.1672 110.955 9.64028 111.625ZM73.3602 111.81C71.7733 112.269 70.2715 113.93 70.2715 115.224C70.2715 117.446 72.632 118.9 76.2399 118.9C79.8902 118.9 82.2083 117.45 82.2083 115.166C82.2083 113.784 80.7702 112.292 78.9492 111.786C77.4833 111.378 74.8098 111.39 73.3602 111.81ZM46.9863 112.744C55.4249 112.89 62.4079 113.087 62.5041 113.183C62.5999 113.28 62.5747 114.141 62.448 115.098L62.2176 116.837L44.6092 116.626C34.9246 116.509 24.8749 116.324 22.276 116.213L17.551 116.011V114.225V112.44L24.597 112.459C28.4725 112.47 38.5474 112.598 46.9863 112.744ZM191.459 114.637C192.249 116.304 192.059 120.376 191.144 121.389C189.543 123.16 187.875 121.003 188.054 117.393C188.18 114.852 188.914 113.436 190.106 113.436C190.68 113.436 191.041 113.756 191.459 114.637ZM129.418 123.553C131.157 125.167 131.746 127.135 131.763 131.386C131.778 135.018 131.724 135.335 130.779 137.196C127.784 143.09 122.839 139.332 122.874 131.188C122.901 124.966 126.462 120.811 129.418 123.553ZM83.0372 129.001C78.3331 129.267 79.187 129.445 90.4754 130.556C95.2959 131.03 99.8468 131.521 100.589 131.648L101.937 131.878L102.149 133.841C102.6 138.031 101.517 141.024 98.6309 143.568C95.6036 146.236 91.4049 146.769 74.9756 146.569C68.171 146.486 62.7995 146.524 63.0389 146.654C64.2538 147.312 89.9343 149.7 96.3238 149.749C101.3 149.788 101.326 149.784 102.529 148.868C104.911 147.052 107.299 140.774 108.147 134.098C108.609 130.465 108.486 130.234 105.698 129.464C103.724 128.92 89.5918 128.631 83.0372 129.001ZM17.551 129.59C17.551 130.983 18.6333 134.263 19.5803 135.741C22.2617 139.925 25.4259 141.213 36.1193 142.477C42.1092 143.185 52.8545 143.488 56.0138 143.038C58.2135 142.725 58.6226 142.552 59.557 141.533C60.1383 140.9 60.8468 139.596 61.132 138.634C61.7083 136.691 61.8177 133.174 61.3409 131.918C60.9924 131.001 63.2166 131.173 41.0929 130.35C30.6469 129.962 21.4182 129.462 19.126 129.16C17.7224 128.976 17.551 129.023 17.551 129.59ZM76.3652 136.156C73.5449 137.385 73.587 140.662 76.4385 141.855C77.9548 142.49 78.8461 142.437 80.3601 141.625C81.5193 141.003 81.6821 140.986 81.948 141.461C82.1108 141.752 82.8588 142.305 83.6108 142.689C86.0701 143.945 89.104 143.023 90.062 140.728C90.9692 138.554 89.3743 136.217 86.6845 135.78C85.3234 135.559 82.7027 136.442 82.2341 137.28C81.9546 137.781 81.8538 137.765 81.1552 137.109C80.3176 136.324 78.8458 135.671 77.9591 135.691C77.6518 135.699 76.9346 135.908 76.3652 136.156Z" fill="black"/>
<path d="M281.33 7.64C283.41 7.64 285.27 8.11 286.91 9.05C288.57 9.97 289.87 11.26 290.81 12.92C291.75 14.56 292.22 16.42 292.22 18.5C292.22 20.58 291.75 22.45 290.81 24.11C289.87 25.75 288.57 27.04 286.91 27.98C285.27 28.9 283.41 29.36 281.33 29.36C279.47 29.36 277.79 29.04 276.29 28.4C274.81 27.76 273.57 26.83 272.57 25.61L275.66 22.73C277.14 24.39 278.95 25.22 281.09 25.22C282.63 25.22 283.93 24.77 284.99 23.87C286.07 22.97 286.77 21.76 287.09 20.24H278.57V16.52H287.03C286.69 15.08 285.99 13.93 284.93 13.07C283.87 12.21 282.59 11.78 281.09 11.78C278.95 11.78 277.14 12.61 275.66 14.27L272.57 11.39C273.57 10.17 274.81 9.24 276.29 8.6C277.79 7.96 279.47 7.64 281.33 7.64ZM307.996 20.57C309.896 21.21 310.846 22.49 310.846 24.41C310.846 25.87 310.296 27 309.196 27.8C308.096 28.6 306.456 29 304.276 29H295.666V12.86H303.916C305.936 12.86 307.516 13.23 308.656 13.97C309.796 14.69 310.366 15.71 310.366 17.03C310.366 17.83 310.156 18.54 309.736 19.16C309.336 19.76 308.756 20.23 307.996 20.57ZM299.956 19.49H303.496C305.136 19.49 305.956 18.91 305.956 17.75C305.956 16.61 305.136 16.04 303.496 16.04H299.956V19.49ZM303.886 25.82C305.606 25.82 306.466 25.23 306.466 24.05C306.466 23.43 306.266 22.98 305.866 22.7C305.466 22.4 304.836 22.25 303.976 22.25H299.956V25.82H303.886ZM320.598 12.62C323.098 12.62 325.018 13.22 326.358 14.42C327.698 15.6 328.368 17.39 328.368 19.79V29H323.988V26.99C323.108 28.49 321.468 29.24 319.068 29.24C317.828 29.24 316.748 29.03 315.828 28.61C314.928 28.19 314.238 27.61 313.758 26.87C313.278 26.13 313.038 25.29 313.038 24.35C313.038 22.85 313.598 21.67 314.718 20.81C315.858 19.95 317.608 19.52 319.968 19.52H323.688C323.688 18.5 323.378 17.72 322.758 17.18C322.138 16.62 321.208 16.34 319.968 16.34C319.108 16.34 318.258 16.48 317.418 16.76C316.598 17.02 315.898 17.38 315.318 17.84L313.638 14.57C314.518 13.95 315.568 13.47 316.788 13.13C318.028 12.79 319.298 12.62 320.598 12.62ZM320.238 26.09C321.038 26.09 321.748 25.91 322.368 25.55C322.988 25.17 323.428 24.62 323.688 23.9V22.25H320.478C318.558 22.25 317.598 22.88 317.598 24.14C317.598 24.74 317.828 25.22 318.288 25.58C318.768 25.92 319.418 26.09 320.238 26.09ZM339.544 22.88H337.114V29H332.434V12.86H337.114V19.13H339.634L344.014 12.86H348.994L343.354 20.6L349.384 29H343.864L339.544 22.88ZM366.943 12.86L359.653 29.99C358.913 31.85 357.993 33.16 356.893 33.92C355.813 34.68 354.503 35.06 352.963 35.06C352.123 35.06 351.293 34.93 350.473 34.67C349.653 34.41 348.983 34.05 348.463 33.59L350.173 30.26C350.533 30.58 350.943 30.83 351.403 31.01C351.883 31.19 352.353 31.28 352.813 31.28C353.453 31.28 353.973 31.12 354.373 30.8C354.773 30.5 355.133 29.99 355.453 29.27L355.513 29.12L348.523 12.86H353.353L357.883 23.81L362.443 12.86H366.943ZM374.944 12.62C377.444 12.62 379.364 13.22 380.704 14.42C382.044 15.6 382.714 17.39 382.714 19.79V29H378.334V26.99C377.454 28.49 375.814 29.24 373.414 29.24C372.174 29.24 371.094 29.03 370.174 28.61C369.274 28.19 368.584 27.61 368.104 26.87C367.624 26.13 367.384 25.29 367.384 24.35C367.384 22.85 367.944 21.67 369.064 20.81C370.204 19.95 371.954 19.52 374.314 19.52H378.034C378.034 18.5 377.724 17.72 377.104 17.18C376.484 16.62 375.554 16.34 374.314 16.34C373.454 16.34 372.604 16.48 371.764 16.76C370.944 17.02 370.244 17.38 369.664 17.84L367.984 14.57C368.864 13.95 369.914 13.47 371.134 13.13C372.374 12.79 373.644 12.62 374.944 12.62ZM374.584 26.09C375.384 26.09 376.094 25.91 376.714 25.55C377.334 25.17 377.774 24.62 378.034 23.9V22.25H374.824C372.904 22.25 371.944 22.88 371.944 24.14C371.944 24.74 372.174 25.22 372.634 25.58C373.114 25.92 373.764 26.09 374.584 26.09ZM400.339 16.7H394.879V29H390.229V16.7H384.769V12.86H400.339V16.7ZM409.72 29.24C408.02 29.24 406.49 28.89 405.13 28.19C403.79 27.47 402.74 26.48 401.98 25.22C401.22 23.96 400.84 22.53 400.84 20.93C400.84 19.33 401.22 17.9 401.98 16.64C402.74 15.38 403.79 14.4 405.13 13.7C406.49 12.98 408.02 12.62 409.72 12.62C411.42 12.62 412.94 12.98 414.28 13.7C415.62 14.4 416.67 15.38 417.43 16.64C418.19 17.9 418.57 19.33 418.57 20.93C418.57 22.53 418.19 23.96 417.43 25.22C416.67 26.48 415.62 27.47 414.28 28.19C412.94 28.89 411.42 29.24 409.72 29.24ZM409.72 25.4C410.92 25.4 411.9 25 412.66 24.2C413.44 23.38 413.83 22.29 413.83 20.93C413.83 19.57 413.44 18.49 412.66 17.69C411.9 16.87 410.92 16.46 409.72 16.46C408.52 16.46 407.53 16.87 406.75 17.69C405.97 18.49 405.58 19.57 405.58 20.93C405.58 22.29 405.97 23.38 406.75 24.2C407.53 25 408.52 25.4 409.72 25.4ZM431.299 12.62C432.799 12.62 434.159 12.97 435.379 13.67C436.619 14.35 437.589 15.32 438.289 16.58C438.989 17.82 439.339 19.27 439.339 20.93C439.339 22.59 438.989 24.05 438.289 25.31C437.589 26.55 436.619 27.52 435.379 28.22C434.159 28.9 432.799 29.24 431.299 29.24C429.239 29.24 427.619 28.59 426.439 27.29V34.82H421.759V12.86H426.229V14.72C427.389 13.32 429.079 12.62 431.299 12.62ZM430.489 25.4C431.689 25.4 432.669 25 433.429 24.2C434.209 23.38 434.599 22.29 434.599 20.93C434.599 19.57 434.209 18.49 433.429 17.69C432.669 16.87 431.689 16.46 430.489 16.46C429.289 16.46 428.299 16.87 427.519 17.69C426.759 18.49 426.379 19.57 426.379 20.93C426.379 22.29 426.759 23.38 427.519 24.2C428.299 25 429.289 25.4 430.489 25.4ZM461.405 29.36C459.265 29.36 457.325 28.9 455.585 27.98C453.865 27.04 452.505 25.75 451.505 24.11C450.525 22.45 450.035 20.58 450.035 18.5C450.035 16.42 450.525 14.56 451.505 12.92C452.505 11.26 453.865 9.97 455.585 9.05C457.325 8.11 459.275 7.64 461.435 7.64C463.255 7.64 464.895 7.96 466.355 8.6C467.835 9.24 469.075 10.16 470.075 11.36L466.955 14.24C465.535 12.6 463.775 11.78 461.675 11.78C460.375 11.78 459.215 12.07 458.195 12.65C457.175 13.21 456.375 14 455.795 15.02C455.235 16.04 454.955 17.2 454.955 18.5C454.955 19.8 455.235 20.96 455.795 21.98C456.375 23 457.175 23.8 458.195 24.38C459.215 24.94 460.375 25.22 461.675 25.22C463.775 25.22 465.535 24.39 466.955 22.73L470.075 25.61C469.075 26.83 467.835 27.76 466.355 28.4C464.875 29.04 463.225 29.36 461.405 29.36ZM489.088 11.96H482.368V29H477.568V11.96H470.878V8H489.088V11.96ZM500.269 20.54H496.909V29H492.079V8H496.909V16.49H500.389L505.909 8H511.039L504.169 18.14L511.249 29H505.729L500.269 20.54Z" fill="black"/>
<path d="M280.9 78.625H277.65V86H274.45V68.5H277.65V75.825H281L286.025 68.5H289.475L283.5 76.975L289.7 86H286.025L280.9 78.625ZM299.298 72.5C300.598 72.5 301.756 72.7833 302.773 73.35C303.806 73.9167 304.615 74.7167 305.198 75.75C305.781 76.7833 306.073 77.975 306.073 79.325C306.073 80.675 305.781 81.875 305.198 82.925C304.615 83.9583 303.806 84.7583 302.773 85.325C301.756 85.8917 300.598 86.175 299.298 86.175C297.498 86.175 296.073 85.575 295.023 84.375V90.85H291.898V72.65H294.873V74.4C295.39 73.7667 296.023 73.2917 296.773 72.975C297.54 72.6583 298.381 72.5 299.298 72.5ZM298.948 83.5C300.098 83.5 301.04 83.1167 301.773 82.35C302.523 81.5833 302.898 80.575 302.898 79.325C302.898 78.075 302.523 77.0667 301.773 76.3C301.04 75.5333 300.098 75.15 298.948 75.15C298.198 75.15 297.523 75.325 296.923 75.675C296.323 76.0083 295.848 76.4917 295.498 77.125C295.148 77.7583 294.973 78.4917 294.973 79.325C294.973 80.1583 295.148 80.8917 295.498 81.525C295.848 82.1583 296.323 82.65 296.923 83C297.523 83.3333 298.198 83.5 298.948 83.5ZM321.417 72.65L315.167 87.075C314.583 88.525 313.875 89.5417 313.042 90.125C312.208 90.725 311.2 91.025 310.017 91.025C309.35 91.025 308.692 90.9167 308.042 90.7C307.392 90.4833 306.858 90.1833 306.442 89.8L307.692 87.5C307.992 87.7833 308.342 88.0083 308.742 88.175C309.158 88.3417 309.575 88.425 309.992 88.425C310.542 88.425 310.992 88.2833 311.342 88C311.708 87.7167 312.042 87.2417 312.342 86.575L312.567 86.05L306.742 72.65H309.992L314.192 82.525L318.417 72.65H321.417ZM333.837 75.3H326.712V86H323.587V72.65H333.837V75.3ZM347.308 72.65V86H344.183V75.3H339.183L339.058 77.95C338.975 79.7167 338.808 81.2 338.558 82.4C338.325 83.5833 337.917 84.525 337.333 85.225C336.767 85.9083 335.983 86.25 334.983 86.25C334.517 86.25 333.942 86.1583 333.258 85.975L333.408 83.35C333.642 83.4 333.842 83.425 334.008 83.425C334.642 83.425 335.117 83.175 335.433 82.675C335.75 82.1583 335.95 81.55 336.033 80.85C336.133 80.1333 336.217 79.1167 336.283 77.8L336.508 72.65H347.308ZM357.467 86.175C356.117 86.175 354.9 85.8833 353.817 85.3C352.734 84.7167 351.884 83.9083 351.267 82.875C350.667 81.825 350.367 80.6417 350.367 79.325C350.367 78.0083 350.667 76.8333 351.267 75.8C351.884 74.7667 352.734 73.9583 353.817 73.375C354.9 72.7917 356.117 72.5 357.467 72.5C358.834 72.5 360.059 72.7917 361.142 73.375C362.225 73.9583 363.067 74.7667 363.667 75.8C364.284 76.8333 364.592 78.0083 364.592 79.325C364.592 80.6417 364.284 81.825 363.667 82.875C363.067 83.9083 362.225 84.7167 361.142 85.3C360.059 85.8833 358.834 86.175 357.467 86.175ZM357.467 83.5C358.617 83.5 359.567 83.1167 360.317 82.35C361.067 81.5833 361.442 80.575 361.442 79.325C361.442 78.075 361.067 77.0667 360.317 76.3C359.567 75.5333 358.617 75.15 357.467 75.15C356.317 75.15 355.367 75.5333 354.617 76.3C353.884 77.0667 353.517 78.075 353.517 79.325C353.517 80.575 353.884 81.5833 354.617 82.35C355.367 83.1167 356.317 83.5 357.467 83.5ZM373.754 86.175C372.371 86.175 371.129 85.8833 370.029 85.3C368.929 84.7167 368.071 83.9083 367.454 82.875C366.837 81.825 366.529 80.6417 366.529 79.325C366.529 78.0083 366.837 76.8333 367.454 75.8C368.071 74.7667 368.921 73.9583 370.004 73.375C371.104 72.7917 372.354 72.5 373.754 72.5C375.071 72.5 376.221 72.7667 377.204 73.3C378.204 73.8333 378.954 74.6 379.454 75.6L377.054 77C376.671 76.3833 376.187 75.925 375.604 75.625C375.037 75.3083 374.412 75.15 373.729 75.15C372.562 75.15 371.596 75.5333 370.829 76.3C370.062 77.05 369.679 78.0583 369.679 79.325C369.679 80.5917 370.054 81.6083 370.804 82.375C371.571 83.125 372.546 83.5 373.729 83.5C374.412 83.5 375.037 83.35 375.604 83.05C376.187 82.7333 376.671 82.2667 377.054 81.65L379.454 83.05C378.937 84.05 378.179 84.825 377.179 85.375C376.196 85.9083 375.054 86.175 373.754 86.175ZM394.635 72.65L388.385 87.075C387.801 88.525 387.093 89.5417 386.26 90.125C385.426 90.725 384.418 91.025 383.235 91.025C382.568 91.025 381.91 90.9167 381.26 90.7C380.61 90.4833 380.076 90.1833 379.66 89.8L380.91 87.5C381.21 87.7833 381.56 88.0083 381.96 88.175C382.376 88.3417 382.793 88.425 383.21 88.425C383.76 88.425 384.21 88.2833 384.56 88C384.926 87.7167 385.26 87.2417 385.56 86.575L385.785 86.05L379.96 72.65H383.21L387.41 82.525L391.635 72.65H394.635ZM407.478 75.3H402.803V86H399.678V75.3H394.978V72.65H407.478V75.3ZM415.109 86.175C413.759 86.175 412.542 85.8833 411.459 85.3C410.375 84.7167 409.525 83.9083 408.909 82.875C408.309 81.825 408.009 80.6417 408.009 79.325C408.009 78.0083 408.309 76.8333 408.909 75.8C409.525 74.7667 410.375 73.9583 411.459 73.375C412.542 72.7917 413.759 72.5 415.109 72.5C416.475 72.5 417.7 72.7917 418.784 73.375C419.867 73.9583 420.709 74.7667 421.309 75.8C421.925 76.8333 422.234 78.0083 422.234 79.325C422.234 80.6417 421.925 81.825 421.309 82.875C420.709 83.9083 419.867 84.7167 418.784 85.3C417.7 85.8833 416.475 86.175 415.109 86.175ZM415.109 83.5C416.259 83.5 417.209 83.1167 417.959 82.35C418.709 81.5833 419.084 80.575 419.084 79.325C419.084 78.075 418.709 77.0667 417.959 76.3C417.209 75.5333 416.259 75.15 415.109 75.15C413.959 75.15 413.009 75.5333 412.259 76.3C411.525 77.0667 411.159 78.075 411.159 79.325C411.159 80.575 411.525 81.5833 412.259 82.35C413.009 83.1167 413.959 83.5 415.109 83.5ZM436.646 72.65V86H433.521V80.825C432.237 81.4417 430.896 81.75 429.496 81.75C427.779 81.75 426.462 81.3583 425.546 80.575C424.629 79.775 424.171 78.5583 424.171 76.925V72.65H427.296V76.725C427.296 77.575 427.546 78.2083 428.046 78.625C428.546 79.0417 429.254 79.25 430.171 79.25C431.337 79.25 432.454 79 433.521 78.5V72.65H436.646ZM440.848 72.65H443.973V78.075H450.698V72.65H453.823V86H450.698V80.725H443.973V86H440.848V72.65ZM463.961 86.175C462.611 86.175 461.394 85.8833 460.311 85.3C459.228 84.7167 458.378 83.9083 457.761 82.875C457.161 81.825 456.861 80.6417 456.861 79.325C456.861 78.0083 457.161 76.8333 457.761 75.8C458.378 74.7667 459.228 73.9583 460.311 73.375C461.394 72.7917 462.611 72.5 463.961 72.5C465.328 72.5 466.553 72.7917 467.636 73.375C468.719 73.9583 469.561 74.7667 470.161 75.8C470.778 76.8333 471.086 78.0083 471.086 79.325C471.086 80.6417 470.778 81.825 470.161 82.875C469.561 83.9083 468.719 84.7167 467.636 85.3C466.553 85.8833 465.328 86.175 463.961 86.175ZM463.961 83.5C465.111 83.5 466.061 83.1167 466.811 82.35C467.561 81.5833 467.936 80.575 467.936 79.325C467.936 78.075 467.561 77.0667 466.811 76.3C466.061 75.5333 465.111 75.15 463.961 75.15C462.811 75.15 461.861 75.5333 461.111 76.3C460.378 77.0667 460.011 78.075 460.011 79.325C460.011 80.575 460.378 81.5833 461.111 82.35C461.861 83.1167 462.811 83.5 463.961 83.5ZM474.904 82.025C475.487 82.025 475.971 82.2167 476.354 82.6C476.737 82.9833 476.929 83.4833 476.929 84.1C476.929 84.3667 476.887 84.65 476.804 84.95C476.737 85.2333 476.587 85.6667 476.354 86.25L475.079 89.775H473.054L474.054 85.95C473.687 85.8 473.396 85.5667 473.179 85.25C472.979 84.9167 472.879 84.5333 472.879 84.1C472.879 83.4833 473.071 82.9833 473.454 82.6C473.837 82.2167 474.321 82.025 474.904 82.025ZM281.325 103.3C282.592 103.3 283.708 103.575 284.675 104.125C285.642 104.658 286.392 105.408 286.925 106.375C287.475 107.342 287.75 108.45 287.75 109.7C287.75 110.983 287.45 112.125 286.85 113.125C286.25 114.108 285.408 114.875 284.325 115.425C283.242 115.975 282.008 116.25 280.625 116.25C278.308 116.25 276.517 115.483 275.25 113.95C273.983 112.417 273.35 110.208 273.35 107.325C273.35 104.642 273.925 102.517 275.075 100.95C276.225 99.3833 277.983 98.35 280.35 97.85L286.55 96.525L287 99.325L281.375 100.475C279.758 100.808 278.55 101.375 277.75 102.175C276.95 102.975 276.483 104.1 276.35 105.55C276.95 104.833 277.675 104.283 278.525 103.9C279.375 103.5 280.308 103.3 281.325 103.3ZM280.7 113.725C281.85 113.725 282.775 113.358 283.475 112.625C284.192 111.875 284.55 110.925 284.55 109.775C284.55 108.625 284.192 107.7 283.475 107C282.775 106.3 281.85 105.95 280.7 105.95C279.533 105.95 278.592 106.3 277.875 107C277.158 107.7 276.8 108.625 276.8 109.775C276.8 110.942 277.158 111.892 277.875 112.625C278.608 113.358 279.55 113.725 280.7 113.725ZM303.275 109.4C303.275 109.617 303.258 109.925 303.225 110.325H292.75C292.933 111.308 293.408 112.092 294.175 112.675C294.958 113.242 295.925 113.525 297.075 113.525C298.541 113.525 299.75 113.042 300.7 112.075L302.375 114C301.775 114.717 301.016 115.258 300.1 115.625C299.183 115.992 298.15 116.175 297 116.175C295.533 116.175 294.241 115.883 293.125 115.3C292.008 114.717 291.141 113.908 290.525 112.875C289.925 111.825 289.625 110.642 289.625 109.325C289.625 108.025 289.916 106.858 290.5 105.825C291.1 104.775 291.925 103.958 292.975 103.375C294.025 102.792 295.208 102.5 296.525 102.5C297.825 102.5 298.983 102.792 300 103.375C301.033 103.942 301.833 104.75 302.4 105.8C302.983 106.833 303.275 108.033 303.275 109.4ZM296.525 105C295.525 105 294.675 105.3 293.975 105.9C293.291 106.483 292.875 107.267 292.725 108.25H300.3C300.166 107.283 299.758 106.5 299.075 105.9C298.391 105.3 297.541 105 296.525 105ZM314.424 109.05C315.257 109.283 315.899 109.667 316.349 110.2C316.815 110.717 317.049 111.342 317.049 112.075C317.049 112.892 316.774 113.617 316.224 114.25C315.674 114.867 314.915 115.35 313.949 115.7C312.982 116.05 311.882 116.225 310.649 116.225C309.615 116.225 308.607 116.108 307.624 115.875C306.64 115.625 305.749 115.275 304.949 114.825L305.849 112.5C306.499 112.867 307.232 113.15 308.049 113.35C308.865 113.55 309.682 113.65 310.499 113.65C311.549 113.65 312.365 113.492 312.949 113.175C313.549 112.842 313.849 112.392 313.849 111.825C313.849 111.308 313.615 110.908 313.149 110.625C312.699 110.342 312.057 110.2 311.224 110.2H308.624V108.1H310.974C311.757 108.1 312.365 107.967 312.799 107.7C313.249 107.433 313.474 107.058 313.474 106.575C313.474 106.092 313.207 105.708 312.674 105.425C312.14 105.142 311.407 105 310.474 105C309.14 105 307.732 105.325 306.249 105.975L305.449 103.675C307.199 102.858 308.965 102.45 310.749 102.45C311.882 102.45 312.899 102.608 313.799 102.925C314.699 103.225 315.399 103.658 315.899 104.225C316.415 104.775 316.674 105.408 316.674 106.125C316.674 106.775 316.474 107.358 316.074 107.875C315.674 108.375 315.124 108.767 314.424 109.05ZM336.876 109.05C338.526 109.55 339.351 110.617 339.351 112.25C339.351 113.45 338.901 114.375 338.001 115.025C337.101 115.675 335.767 116 334.001 116H327.201V102.65H333.726C335.359 102.65 336.634 102.95 337.551 103.55C338.467 104.15 338.926 105 338.926 106.1C338.926 106.783 338.742 107.375 338.376 107.875C338.026 108.375 337.526 108.767 336.876 109.05ZM330.176 108.225H333.451C335.067 108.225 335.876 107.667 335.876 106.55C335.876 105.467 335.067 104.925 333.451 104.925H330.176V108.225ZM333.751 113.725C335.467 113.725 336.326 113.167 336.326 112.05C336.326 111.467 336.126 111.033 335.726 110.75C335.326 110.45 334.701 110.3 333.851 110.3H330.176V113.725H333.751ZM349.179 107.05C350.879 107.05 352.179 107.433 353.079 108.2C353.979 108.967 354.429 110.05 354.429 111.45C354.429 112.917 353.929 114.05 352.929 114.85C351.946 115.65 350.546 116.042 348.729 116.025L342.679 116V102.65H345.804V107.025L349.179 107.05ZM356.154 102.65H359.279V116H356.154V102.65ZM348.454 113.725C349.371 113.742 350.071 113.55 350.554 113.15C351.037 112.75 351.279 112.167 351.279 111.4C351.279 110.65 351.046 110.1 350.579 109.75C350.112 109.4 349.404 109.217 348.454 109.2L345.804 109.175V113.7L348.454 113.725ZM371.83 116L368.405 111.375L364.955 116H361.505L366.705 109.225L361.73 102.65H365.205L368.48 107.025L371.755 102.65H375.13L370.13 109.175L375.355 116H371.83ZM383.102 116.175C381.752 116.175 380.535 115.883 379.452 115.3C378.368 114.717 377.518 113.908 376.902 112.875C376.302 111.825 376.002 110.642 376.002 109.325C376.002 108.008 376.302 106.833 376.902 105.8C377.518 104.767 378.368 103.958 379.452 103.375C380.535 102.792 381.752 102.5 383.102 102.5C384.468 102.5 385.693 102.792 386.777 103.375C387.86 103.958 388.702 104.767 389.302 105.8C389.918 106.833 390.227 108.008 390.227 109.325C390.227 110.642 389.918 111.825 389.302 112.875C388.702 113.908 387.86 114.717 386.777 115.3C385.693 115.883 384.468 116.175 383.102 116.175ZM383.102 113.5C384.252 113.5 385.202 113.117 385.952 112.35C386.702 111.583 387.077 110.575 387.077 109.325C387.077 108.075 386.702 107.067 385.952 106.3C385.202 105.533 384.252 105.15 383.102 105.15C381.952 105.15 381.002 105.533 380.252 106.3C379.518 107.067 379.152 108.075 379.152 109.325C379.152 110.575 379.518 111.583 380.252 112.35C381.002 113.117 381.952 113.5 383.102 113.5ZM407.417 113.35V118.975H404.492V116H394.192V118.975H391.292V113.35H391.917C392.767 113.317 393.342 112.775 393.642 111.725C393.959 110.658 394.167 109.158 394.267 107.225L394.442 102.65H405.442V113.35H407.417ZM397.117 107.45C397.051 108.983 396.926 110.233 396.742 111.2C396.559 112.167 396.226 112.883 395.742 113.35H402.317V105.3H397.192L397.117 107.45ZM410.208 102.65H413.333V108.075H420.058V102.65H423.183V116H420.058V110.725H413.333V116H410.208V102.65ZM433.871 107.05C435.571 107.05 436.871 107.433 437.771 108.2C438.671 108.967 439.121 110.05 439.121 111.45C439.121 112.917 438.621 114.05 437.621 114.85C436.638 115.65 435.238 116.042 433.421 116.025L427.371 116V102.65H430.496V107.025L433.871 107.05ZM440.846 102.65H443.971V116H440.846V102.65ZM433.146 113.725C434.063 113.742 434.763 113.55 435.246 113.15C435.73 112.75 435.971 112.167 435.971 111.4C435.971 110.65 435.738 110.1 435.271 109.75C434.805 109.4 434.096 109.217 433.146 109.2L430.496 109.175V113.7L433.146 113.725ZM456.522 116L453.097 111.375L449.647 116H446.197L451.397 109.225L446.422 102.65H449.897L453.172 107.025L456.447 102.65H459.822L454.822 109.175L460.047 116H456.522Z" fill="black"/>
</svg>
