<svg width="40" height="40" viewBox="0 0 40 40" fill="none" xmlns="http://www.w3.org/2000/svg">
<path d="M20 0C8.95161 0 0 8.95161 0 20C0 31.0484 8.95161 40 20 40C31.0484 40 40 31.0484 40 20C40 8.95161 31.0484 0 20 0ZM29.8226 13.7016L26.5403 29.1694C26.2984 30.2661 25.6452 30.5323 24.7339 30.0161L19.7339 26.3306L17.3226 28.6532C17.0565 28.9194 16.8306 29.1452 16.3145 29.1452L16.6694 24.0564L25.9355 15.6855C26.3387 15.3306 25.8468 15.129 25.3145 15.4839L13.8629 22.6935L8.92742 21.1532C7.85484 20.8145 7.83064 20.0806 9.15323 19.5645L28.4355 12.129C29.3306 11.8065 30.1129 12.3468 29.8226 13.7016V13.7016Z" fill="#098C36"/>
</svg>
